<svg id="Layer_1" data-name="Layer 1" xmlns="http://www.w3.org/2000/svg" xmlns:xlink="http://www.w3.org/1999/xlink" viewBox="0 0 231.46 225.99"><defs><style>.cls-1{fill:none;}.cls-2{clip-path:url(#clip-path);}.cls-3{fill:#bad8f2;}</style><clipPath id="clip-path" transform="translate(-36.84 -42.01)"><rect class="cls-1" x="36.84" y="42" width="231.47" height="226"/></clipPath></defs><title>3차디자인-shakahand</title><g class="cls-2"><path class="cls-3" d="M104.12,171a12.52,12.52,0,0,1-4.48-1.07c-2.51-1-4-2-4.51-3.14-5.5-7.57-4.08-25.24-1.46-32.12L115,76.32A20.2,20.2,0,0,1,122,66.88a14.17,14.17,0,0,1,13-1.58s1.26.39,4,1.5c2.55,1,3.67,1.44,3.68,1.44,6.16,2.24,9.62,6.92,9.77,13.18l0,.76-.44.63a21.5,21.5,0,0,0-2.52,4.76l-22.87,62.32-.05.12a60.08,60.08,0,0,1-8.83,12.49c-3.08,3.33-7.7,7.46-12.39,8.31a4.17,4.17,0,0,1-1.23.16Zm-4.86-6.41a10.25,10.25,0,0,0,2.1,1.05,8.7,8.7,0,0,0,2.71.73h0l.33-.06c6.1-1,14.45-11.37,18-18.24l22.8-62.11a27.09,27.09,0,0,1,2.59-5.13c-.31-4-2.5-6.71-6.67-8.23,0,0-1.19-.43-3.86-1.51-2.5-1-3.65-1.38-3.66-1.39-3-1-10.24-2.14-14.21,8.25L98,136.26a45,45,0,0,0-2,14.24c0,6.27,1.1,11.27,3,13.73l.26.34Z" transform="translate(-36.84 -42.01)"/><path class="cls-3" d="M114,147.75a18.09,18.09,0,0,0-4.92-2.94,18.29,18.29,0,0,0-5.67-.9l-.12-4.61a22.72,22.72,0,0,1,7.37,1.17,22.43,22.43,0,0,1,6.41,3.83Z" transform="translate(-36.84 -42.01)"/><path class="cls-3" d="M97.81,166.25s-3-1.66-4-7.07,5-13.81,5-13.81" transform="translate(-36.84 -42.01)"/><path class="cls-3" d="M96.69,168.27c-.41-.22-4-2.37-5.19-8.68S96.26,145,96.94,144l3.75,2.69c-2.12,3-5.25,8.82-4.64,12,.78,4.14,2.84,5.46,2.92,5.51l-1.16,2-1.13,2Z" transform="translate(-36.84 -42.01)"/><path class="cls-3" d="M103.77,168.61s3.38.66,7.65-2.84,5-13.81,5-13.81" transform="translate(-36.84 -42.01)"/><path class="cls-3" d="M104.48,171a7,7,0,0,1-1.16-.09l.89-4.53h0c.1,0,2.52.33,5.78-2.35,2.54-2.09,3.93-8.59,4.2-12.2l4.62.35c-.09,1.15-1,11.41-5.88,15.42A13.32,13.32,0,0,1,104.48,171Z" transform="translate(-36.84 -42.01)"/><path class="cls-3" d="M133.41,189.35a13.23,13.23,0,0,1-4.77-1.14c-2.62-1-4.17-2.1-4.78-3.28-6.19-8.45-4.17-28.62-1.59-35.37L145.5,86.3A21.63,21.63,0,0,1,153,76.17c4-2.82,8.85-3.41,13.94-1.72,0,0,1.37.43,4.3,1.62,2.77,1.12,4,1.56,4,1.56,4.38,1.58,7.43,4.21,9.08,7.82,2.63,5.75.89,12.19-.39,15.52l-25.19,62.48c-1.55,4-5.29,10-9.28,14.84-3.67,4.42-9.16,9.87-14.7,10.89a4.27,4.27,0,0,1-1.3.17ZM128,182.76a11.64,11.64,0,0,0,2.34,1.16,9,9,0,0,0,3,.81l0,0,.32-.05c7.32-1.2,17.9-15.78,20.62-22.9l25.2-62.47c1-2.62,2.42-7.7.49-11.91A10.67,10.67,0,0,0,173.63,82s-1.28-.45-4.17-1.63c-2.71-1.1-4-1.49-4-1.5-3.28-1.08-11.27-2.34-15.64,9.07l-23.23,63.26c-1.3,3.4-2.19,9.91-2.18,15.86,0,7.06,1.21,12.64,3.29,15.33l.31.39Z" transform="translate(-36.84 -42.01)"/><path class="cls-3" d="M143.62,165.16a20.77,20.77,0,0,0-5.34-3.11,20.53,20.53,0,0,0-6.11-1l0-4.62a24.65,24.65,0,0,1,7.72,1.32,25,25,0,0,1,6.75,3.93Z" transform="translate(-36.84 -42.01)"/><path class="cls-3" d="M127,184.9s-3.21-1.73-4.4-7.21,5-13.81,5-13.81" transform="translate(-36.84 -42.01)"/><path class="cls-3" d="M125.94,186.93c-.43-.23-4.2-2.42-5.56-8.75s4.74-14.74,5.44-15.68l3.71,2.76c-2.15,2.9-5.32,8.71-4.63,11.94.92,4.25,3.18,5.63,3.28,5.69Z" transform="translate(-36.84 -42.01)"/><path class="cls-3" d="M131.88,186.85s3.94.86,8.38-2.57,5-13.81,5-13.81" transform="translate(-36.84 -42.01)"/><path class="cls-3" d="M133,189.25a7.77,7.77,0,0,1-1.65-.14l1-4.51-.49,2.26.46-2.27c.12,0,3,.54,6.5-2.13,2.61-2,3.93-8.51,4.15-12.12l4.62.27c-.07,1.17-.81,11.53-5.93,15.5A14.1,14.1,0,0,1,133,189.25Z" transform="translate(-36.84 -42.01)"/><path class="cls-3" d="M134.13,268a77.79,77.79,0,0,1-14.23-1.34c-10.05-1.87-15.25-6.61-17.14-8.75-2.57-.06-8.58-.92-18.89-6.15-17.59-8.94-26.4-19.78-31.43-38.67-5.67-21.29-5.4-48.18-5-58.76.32-8.9-.15-24.73-.15-24.89l-.68-22.7,5.24,22.1c0,.12,3,12.27,9,19.45,9.28,11,13.48,11.91,22.67,13.83,1.4.3,2.85.6,4.46,1,14.25,3.27,21.11,9.31,22.43,10.58,2.27,2,9.19,10.72,3.77,19.93a2.37,2.37,0,0,1-2,1.19c-1.42,0-2.08-1-2.66-1.87a16.42,16.42,0,0,0-8.32-6.88c-3.52-1.33-6.43-1.17-8,.45-2.08,2.14-2,6.8.22,12.16,2.08,5,5.1,6.88,9.68,9.72,1.19.73,2.42,1.49,3.74,2.37a39.25,39.25,0,0,0,8.51,4.26c4.25,1.68,9.55,3.77,20.29,10.59,4.39,2.79,6.5,5.38,6.63,8.14.17,3.43-2.69,5.67-5.22,7.65-1.38,1.08-3.29,2.57-3.23,3.4,0,.24.31,1.55,4.49,4,8.31,4.84,14.87,6.48,18.91,7a20.62,20.62,0,0,0,6.82,0l12.5-3-10.64,7.17c-.6.4-12.3,8.09-31.73,8.09ZM105,253.06l.77,1.23c.16.22,4.15,5.83,15,7.84a66.63,66.63,0,0,0,33.84-2.1,58,58,0,0,1-18.65-7.28c-4.44-2.58-6.59-5-6.77-7.66-.23-3.27,2.55-5.44,5-7.35,1.55-1.22,3.5-2.74,3.45-3.79,0-.39-.4-1.86-4.5-4.46-10.36-6.58-15.43-8.59-19.51-10.19a43,43,0,0,1-9.38-4.72c-1.25-.83-2.44-1.57-3.6-2.28-4.76-3-8.88-5.49-11.52-11.88-3-7.31-2.75-13.55.73-17.14,2.92-3,7.64-3.56,13-1.54a20.66,20.66,0,0,1,8.62,6c.85-5.77-4-10.55-4.1-10.6l-.13-.13c-.66-.64-6.82-6.33-20.28-9.42-1.57-.35-3-.65-4.38-.94-4.74-1-8.49-1.78-12.4-3.9s-8-5.74-12.85-11.49a40.77,40.77,0,0,1-5.14-8.12c0,4,0,8.08-.1,11.36-.37,10.37-.64,36.72,4.87,57.41,4.65,17.45,12.8,27.47,29.05,35.73,12.15,6.17,17.51,5.65,17.56,5.64l1.46-.22Z" transform="translate(-36.84 -42.01)"/><path class="cls-3" d="M132.2,268c-19.31,0-27.68-7.68-30-10.4-4.2-.51-20-3.33-35.48-17.83C60,233.5,54.62,223.71,52,212.88c-5.45-22.11-5.23-38.33-5-57.1.1-7.71.2-15.68-.05-24.82-.72-25.88-7.53-43.63-7.6-43.81L39.25,87c-.49-1.6-4.69-15.87-.72-23a7.71,7.71,0,0,1,4.88-3.85c10.53-2.74,24.74,5,30.41,16.6C79,87.35,82.13,119.68,82.53,124c.15.31.38.81.7,1.5,1,.88,3.92,2.91,6.86,2.56,2.14-.26,4-1.79,5.66-4.55.67-1.13,1.53-2.78,2.37-4.37,1.21-2.3,2.47-4.67,3.37-6l3.86,2.55c-.77,1.16-2,3.43-3.12,5.62-.91,1.71-1.76,3.33-2.47,4.55-2.39,4.08-5.45,6.36-9.12,6.8-5.12.62-9.67-2.8-11-4.16l-.28-.28-.16-.36c-.67-1.46-1-2.17-1-2.19l-.19-.38,0-.43c0-.36-3.24-35.67-8.29-46C65.05,69.38,52.86,62.5,44.58,64.64a3.12,3.12,0,0,0-2,1.64c-2.54,4.53-.1,15.38,1.09,19.29.59,1.54,7.14,19.18,7.88,45.27.26,9.22.15,17.24.05,25-.24,18.46-.45,34.4,4.86,55.94,2.46,10,7.35,19,13.4,24.62a66.34,66.34,0,0,0,23,14.17,45.74,45.74,0,0,0,10.62,2.53l1.13.07.64.94c.08.12,9.34,12.86,39.44,8.25,29.86-4.56,43.78-33,43.91-33.23l.09-.16,28.14-48.47.44-.64a36.47,36.47,0,0,0,3.91-9.44,20.46,20.46,0,0,1,.89-2.65l18.5-43.05,17-46.78,0-.09a79.41,79.41,0,0,0,5.18-16c1.31-6.39,1.14-11.15-.44-12.78a14.49,14.49,0,0,0-2.83-1.76,9.47,9.47,0,0,0-2.06-.65h-.06l-.32,0c-4.17-.3-11.46,9.15-18.17,23.53l-17.25,43.38-21.29,46.29.43-11.59c0-.42.39-10.53,1.05-14.36.08-.43.13-.81.18-1.2.32-2.28.72-5.12,5-20.07l4.45,1.25c-4.16,14.66-4.54,17.32-4.84,19.46-.06.44-.12.86-.2,1.34s-.13.84-.19,1.36l11.2-24.35,17.25-43.38C239.3,58.39,248.24,42,256.93,42h.32a10.79,10.79,0,0,1,4,1,19.65,19.65,0,0,1,4.08,2.5l.15.14c7,6.67-1,28.4-3.62,34.05l-17,46.78-18.56,43.2c-.14.31-.41,1.2-.66,2.05a40,40,0,0,1-4.51,10.69l-.4.59-28,48.19c-1.06,2.18-15.57,30.87-47.35,35.73A88.68,88.68,0,0,1,132.19,268Z" transform="translate(-36.84 -42.01)"/><path class="cls-3" d="M166,193.3a11.9,11.9,0,0,1-4.26-1c-1.57-.63-3.61-1.6-4.34-3.06-5.18-7.38-3.6-24.82-1-31.62l4.56-12.41,18.5-46a22.94,22.94,0,0,0,1.23-4.51l.1-.61.39-.47c4.12-5.08,9.72-6.78,15.78-4.78,0,0,1.21.38,3.8,1.43,2.42,1,3.48,1.37,3.49,1.37h0a13.34,13.34,0,0,1,8,7c2.43,5.29.79,11.32-.4,14.45l-22.94,57c-2.33,6.09-12.47,21.24-21.62,23.09a4.24,4.24,0,0,1-1.3.18ZM161.51,187a9.27,9.27,0,0,0,1.93,1,8.06,8.06,0,0,0,2.49.67l.32-.06c6.46-1.17,16-14.2,18.34-20.26l22.94-57c1.58-4.13,1.76-8.09.5-10.84A8.7,8.7,0,0,0,202.66,96c-.12,0-1.24-.45-3.68-1.44s-3.46-1.31-3.47-1.31a9.06,9.06,0,0,0-10.39,2.84,28.38,28.38,0,0,1-1.37,4.82l-18.5,46-4.54,12.34a46.2,46.2,0,0,0-2.11,14.06c-.07,6.17.9,11.06,2.68,13.44l.24.32Z" transform="translate(-36.84 -42.01)"/><path class="cls-3" d="M176.44,170.45a19.11,19.11,0,0,0-5.12-3,19.54,19.54,0,0,0-5.89-1l-.07-4.61A20.85,20.85,0,0,1,179.48,167l-3,3.49Z" transform="translate(-36.84 -42.01)"/><path class="cls-3" d="M160.31,189s-3.11-1.7-4.21-7.15,5-13.81,5-13.81" transform="translate(-36.84 -42.01)"/><path class="cls-3" d="M159.2,191.05c-.41-.23-4.09-2.4-5.37-8.72s4.75-14.69,5.44-15.63l3.73,2.73c-2.14,2.92-5.28,8.76-4.63,12,.84,4.2,3,5.55,3.1,5.6l-2.27,4Z" transform="translate(-36.84 -42.01)"/><path class="cls-3" d="M165.36,191s3.48.7,7.83-2.77,5-13.81,5-13.81" transform="translate(-36.84 -42.01)"/><path class="cls-3" d="M166.17,193.42a6.07,6.07,0,0,1-1.26-.11l.45-2.26.41-2.28c.11,0,2.63.37,6-2.3,2.58-2.05,3.93-8.55,4.17-12.16l4.62.3c-.08,1.16-.9,11.48-5.9,15.47A13.7,13.7,0,0,1,166.17,193.42Z" transform="translate(-36.84 -42.01)"/></g></svg>