<?xml version="1.0" encoding="utf-8"?>
<!-- Generator: Adobe Illustrator 23.1.0, SVG Export Plug-In . SVG Version: 6.00 Build 0)  -->
<svg version="1.1" xmlns="http://www.w3.org/2000/svg" xmlns:xlink="http://www.w3.org/1999/xlink" x="0px" y="0px"
	 viewBox="0 0 841.9 595.3" style="enable-background:new 0 0 841.9 595.3;" xml:space="preserve">
<style type="text/css">
	.st0{display:none;}
	.st1{fill:none;stroke:#3873A6;stroke-width:4;stroke-linecap:round;stroke-linejoin:round;stroke-miterlimit:10;}
	.st2{fill:none;stroke:#3873A6;stroke-width:11;stroke-linecap:round;stroke-linejoin:round;stroke-miterlimit:10;}
	.st3{fill:#3873A6;}
</style>
<g id="Layer_1" class="st0">
</g>
<g id="Layer_2">
	<path class="st1" d="M360.3,354.6c6-10.6,6.3-8.4,7.3-19s-12.2-43-13.6-53.6s-1.8-37.8-1.8-37.8s-0.4-13-3.3-24
		c-3-11.2,1.5-12.6,4.6-13.2c3.2-0.6,11.7,4.4,15.5,16.9c3.8,12.6,5.5,26.3,6.6,33.6c1,7.4,4.2,9.5,4.2,9.5s9.6,9.8,15.6,25.6
		s7.8,36.6,7.8,36.6"/>
	<path class="st1" d="M466.6,256.8c0,0,7.1-4.5,13.2-10c5.6-5,9.6-8.8,12.8-13.4c4.8-5.2,6.2-10.6,11.2-10.6s7.6,3.2,0,15.4
		c-8.2,13.1-22.5,34.4-27.7,41.4c-2,5.8-5,12.8-6.6,14.2c0,0-17.3,45-39.3,61.6c-2.4,3.6-7.2,9.4-8.4,15.4"/>
	<path class="st1" d="M396.4,238.2c0.4,14.7,7,19.1,7,19.1s1.8,5.5,3.2,10c4.3,13,11.5,11.6,14.6,10.8c3.1-0.8,5.2-3.4,5.3-7
		c0-3.6-0.9-7.1-4.3-17.9c-3.5-14.6-5.1-23.9-7.6-28.9c-2.5-5.1-9.6-6.4-13.2-5.4c-5.8,1.6-6.6,3.3-8.1,5.3
		c-2.3,1.7-5.4,10.6-5.3,14c-2.2,9.3,0.6,28.3,0.6,28.3"/>
	<path class="st1" d="M426.2,272.8c-4.4-2.8-11.8,3.2-11.8,3.2c0.5,0.2-3-7.3-3.8-12.5c-0.6-4.2,1.8-6.5,5-7.2
		c3.1-0.7,5.2-1.9,7.1,2.9c2.4,5.8,3.4,11.1,3.6,8.8"/>
	<path class="st1" d="M416.3,227.3c0,0,1.7-2.3,4.9-4.7c1-0.6,4.6-3.7,11.7-1.9s8.2,4.8,9.4,8.7c1.2,3.9,0.1,31.5-0.8,38.2
		s-1.1,21.4-10.4,21.3s-10.7-3.7-11.2-10.4"/>
	<path class="st1" d="M442,228.3c0,0,2.6-7.1,14.4-5s10.7,16,10.1,25c-0.6,9,0,14.4-3.5,22.2c-1.2,6.9-2.4,18.8-12.6,16.9
		c-10.2-1.9-10.7-8.9-9.8-16.1"/>
	<path class="st1" d="M426.1,266.6c0,0,4.5-4.6,11.5,0.6c0.1,7.7-0.2,16.7-0.2,16.7s-3.8-1.6-7.5-1.6s-6,2.7-6,2.7s-1.4,0.4-1.5-2.6
		c-0.2-3-0.3-4.6-0.3-4.6"/>
	<path class="st1" d="M443.4,281.6c0,0,9-1.6,14.4,1.6c2.4-6,2-12,1.8-14.6c-0.4-3.8-3.3-6.1-5.8-6.1c-2.5,0-8.8,1-9.8,8.7
		S443.4,281.6,443.4,281.6z"/>
	<path class="st1" d="M387.2,254.2c0,0-4.4,9.2-4,14.8"/>
	<path class="st1" d="M393.5,259.6c0,0,5.1,5.8,10,3.4"/>
	<path class="st1" d="M407.8,248.4c0,0,8.6-3.9,13.2,0"/>
	<path class="st1" d="M423.8,258.6c0,0,2.9-2.6,10.2-1"/>
	<path class="st1" d="M448.4,255.5c0,0,11.6-3.3,17,4.1"/>
	<path class="st1" d="M464.2,229.4"/>
	<path class="st1" d="M481.2,251.6c0,0,0.4,4.8,7.2,6.9"/>
	<path class="st1" d="M496.6,235.8c0,0,2.6,3.3,6,3.7"/>
	<path class="st1" d="M373.9,354.1c0,0,8,4.2,18.4-1.8c6.2-4,6.8-10.2,12.8-5.4c6,4.8,25.7,7.5,30.7,3.3"/>
	<path class="st1" d="M365.9,346.9c0,0,9.6,2.4,14.8-2.4c5.2-4.8,8.4,4.2,13.2,5"/>
	<path class="st2" d="M367.8,201.6c0,0,14.2-19.4,51.8-20.4c30.2-0.8,56.8,18.6,56.8,18.6"/>
	<path class="st3" d="M446.9,266.1c0,0-0.3,2,4.2,2.8c4.5,0.8,7.2-1.4,7.2-1.4s-2.3-3.2-5.2-3.5
		C450.2,263.8,446.9,266.1,446.9,266.1z"/>
	<path class="st3" d="M425.8,267c0,0-0.3,2,4.2,2.8c4.5,0.8,7.2-1.4,7.2-1.4s-2.3-3.2-5.2-3.5C429.1,264.7,425.8,267,425.8,267z"/>
	<path class="st3" d="M410.5,260.5c0,0,0.4,2.1,5.4,1.3s7-4,7-4s-3.5-2.4-6.6-1.6S410.5,260.5,410.5,260.5z"/>
</g>
</svg>
