<svg xmlns="http://www.w3.org/2000/svg" viewBox="0 0 196.31 194.43"><defs><style>.cls-1{fill:none;stroke:#fff;stroke-miterlimit:10;stroke-width:9px;}</style></defs><g id="Layer_2" data-name="Layer 2"><g id="Layer_1-2" data-name="Layer 1"><path class="cls-1" d="M98.15,4.5C46.43,4.5,4.5,46.69,4.5,98.73A94.2,94.2,0,0,0,71.34,189a1.51,1.51,0,0,0,1.88-1l.33-1c1.63-4.91.63-18.11.18-23a1.53,1.53,0,0,0-1.94-1.32c-4,1.15-14,3.25-20.52-1.87-9.85-7.74-12-12.28-14.42-18.35A24.76,24.76,0,0,0,29.66,133a1.52,1.52,0,0,1,1-2.7,23,23,0,0,1,3.57.39C41,132,48.47,146.25,56.51,149.08s15.41,0,17.67-1a1.48,1.48,0,0,0,.85-1l1.1-4.38a1.82,1.82,0,0,1,.11-.3L79,136.87a1.51,1.51,0,0,0-1.3-2.2c-8.5-.24-36.7-3.56-40.84-36.71-2.22-17.72,5.85-27,8.42-29.48a1.5,1.5,0,0,0,.36-1.63c-.84-2.21-2.74-7.9-2.23-13.46a38,38,0,0,1,3.49-12.23,1.5,1.5,0,0,1,1.44-.86,34.06,34.06,0,0,1,10.8,2.61,84.9,84.9,0,0,1,13.94,7.54,1.47,1.47,0,0,0,1.06.23c3-.46,17.13-2.53,24.32-2.53s22.72,2.13,25.71,2.55a1.5,1.5,0,0,0,1-.18c2-1.1,10-5.57,14-7.61,3.43-1.77,8.39-2.36,10.63-2.55a1.51,1.51,0,0,1,1.56,1,47.16,47.16,0,0,1,2.23,12c.16,3.54-.92,10.66-1.23,12.61a1.53,1.53,0,0,0,.15.94c1.48,2.83,9.49,18.93,9,33.64-1.12,30.13-31.7,33.66-40.75,34a1.51,1.51,0,0,0-1.3,2.18c1.67,3.42,4.46,11,4,22.76-.49,13.58-1.68,22.86,1.31,28.84l.31.63a94.2,94.2,0,0,0,66.83-90.3C191.81,46.69,149.88,4.5,98.15,4.5Z"/></g></g></svg>