<svg xmlns="http://www.w3.org/2000/svg" viewBox="0 0 386.01 292.53"><defs><style>.cls-1{isolation:isolate;}.cls-10,.cls-2{fill:#3874a7;}.cls-11,.cls-12,.cls-3{fill:#fff;}.cls-12,.cls-3,.cls-6,.cls-8,.cls-9{stroke:#3874a7;}.cls-12,.cls-13,.cls-3,.cls-6,.cls-8,.cls-9{stroke-miterlimit:10;}.cls-3{stroke-width:3px;}.cls-4{fill:#5990bf;}.cls-5{fill:#fce8ec;}.cls-13,.cls-6,.cls-8,.cls-9{fill:none;}.cls-13,.cls-6{stroke-width:2px;}.cls-10,.cls-15,.cls-16,.cls-7,.cls-8{opacity:0.5;}.cls-8{stroke-width:0.5px;}.cls-13{stroke:#5990bf;}.cls-14{fill:#4a90bf;}.cls-15{fill:#bad8f2;}.cls-15,.cls-16{mix-blend-mode:multiply;}.cls-16{fill:#bbd8f2;}</style></defs><title>myface</title><g class="cls-1"><g id="Layer_2" data-name="Layer 2"><g id="Layer_2-2" data-name="Layer 2"><path class="cls-2" d="M112.74,3.24S16.63,12.35,2.6,96.11c-6.91,41.24,1.78,29.74,5,78.74,2.48,37.63-1.36,62,22.17,94.93,21.4,30,37.07,21.7,37.07,21.7l40.89-2.83L91.33,264.8l22,23.44,31.15-2.93-16.46-19.8,22.2,19.26,63.4-5.26L193,257.25,219.1,279.1,279,265.53l-15.73-7.44,20.08,6.23,44.71-6s8.14-1.1,0-26.26c-2.72-8.41-5.8-14.2-8.7-18.18-1.69-2.32,1.52-5,3.81-3.21a33.15,33.15,0,0,1,8.51,10.49c9,16.77,4.25,34.12,4.25,34.12l39.35-16.08s35.12-47-21.47-93.06C260.46,70.22,243.53,40.9,203.37,13.29,171.38-8.71,112.74,3.24,112.74,3.24Z"/><path class="cls-3" d="M108.17,45.94c-2.16-3.24-5.89-2.35-9.64-2.49-22.55-.86-46.6,18-46.88,51.39-.4,49.32-15.43,44.93-26.48,65.4-2.66,4.92,2,22.92,7.68,47,4.78,20.38,21.94,49.32,90.51,51.74,50,1.77,88.59-37,98-59.84,2.92-7.09,4-17.2,3.41-25.61-1.59-22.73-5.46-67.11-33.73-79.05C131.46,69.33,113.43,53.82,108.17,45.94Z"/><path class="cls-4" d="M125.91,107.59a4.24,4.24,0,0,1,.6-1.91,9,9,0,0,1,1.15-1.65,16,16,0,0,1,3-2.56,25,25,0,0,1,6.91-3.1,30.41,30.41,0,0,1,7.36-1.12,20,20,0,0,1,3.84.3,10.42,10.42,0,0,1,1.91.57,3,3,0,0,1,1.62,1.21,1.91,1.91,0,0,0-.89,0,6.25,6.25,0,0,0-.86.18c-.56.15-1.12.33-1.67.51l-3.3,1.12c-2.2.75-4.44,1.45-6.65,2.05L132.33,105c-1.08.32-2.18.63-3.25,1A11.15,11.15,0,0,0,125.91,107.59Z"/><path class="cls-4" d="M79.4,116.36a8.91,8.91,0,0,0-3.47-.15c-1.11.1-2.22.27-3.32.47L66,117.88c-2.24.39-4.55.74-6.82,1l-3.43.42c-.57.07-1.15.15-1.72.25a7.53,7.53,0,0,0-.85.2,2.17,2.17,0,0,0-.82.37,3.34,3.34,0,0,1,1-1.76A10.07,10.07,0,0,1,54.75,117a19.33,19.33,0,0,1,3.3-1.93A29.06,29.06,0,0,1,65.11,113a24.17,24.17,0,0,1,7.51-.2,14.28,14.28,0,0,1,3.76,1,8.67,8.67,0,0,1,1.74,1A3.81,3.81,0,0,1,79.4,116.36Z"/><ellipse class="cls-5" cx="182.61" cy="184.5" rx="16.32" ry="7.67" transform="translate(-41.53 53.55) rotate(-15)"/><ellipse class="cls-5" cx="57.2" cy="203.76" rx="16.32" ry="7.67" transform="translate(-7.78 2.35) rotate(-2.2)"/><path class="cls-6" d="M113.64,208c-9.93,1-17.34.3-18.23-8.77s5.91-12.75,11.94-23.77"/><g class="cls-7"><path class="cls-2" d="M113.64,209a51.28,51.28,0,0,1-6.44.66,23.3,23.3,0,0,1-6.57-.59,9.87,9.87,0,0,1-5.78-3.71A11.61,11.61,0,0,1,93,198.71a13.75,13.75,0,0,1,1.65-6.63,27.1,27.1,0,0,1,4-5.31c3-3.18,6-6.11,8.88-9.34a85.48,85.48,0,0,1-7.67,10.37c-2.67,3.28-5,6.84-4.83,10.9a10.14,10.14,0,0,0,1.42,5.59,8.68,8.68,0,0,0,4.69,3.31,25.9,25.9,0,0,0,6.15,1.1C109.34,208.88,111.48,208.92,113.64,209Z"/></g><path class="cls-8" d="M128.35,127.48s.34-2.86,8.13-6.71c6.38-3.15,7.39-2.21,7.39-2.21"/><path class="cls-6" d="M170.43,134.48c7.33,2.18,13.48,5.52,19.38,4.7"/><path class="cls-6" d="M131.93,144.83s12.33-11.78,26.9-12.1a37.28,37.28,0,0,1,11.6,1.75"/><ellipse class="cls-2" cx="156.6" cy="155.28" rx="15.73" ry="21.93" transform="translate(-15.97 17.97) rotate(-6.25)"/><path class="cls-9" d="M131.72,144.73S142.6,131.6,157,129.6a37.25,37.25,0,0,1,11.72.39"/><ellipse class="cls-10" cx="158.62" cy="155.28" rx="15.73" ry="21.93" transform="translate(-15.96 18.19) rotate(-6.25)"/><ellipse class="cls-11" cx="164.76" cy="174.56" rx="22.23" ry="5.32" transform="translate(-27.81 31.26) rotate(-10)"/><ellipse class="cls-12" cx="158.62" cy="145.44" rx="4.99" ry="6.67" transform="translate(-22.85 29.75) rotate(-10)"/><path class="cls-8" d="M83.14,136.74s-.67-2.13-7.64-3.35c-5.71-1-6.42-.07-6.42-.07"/><path class="cls-6" d="M85.23,152.75s-15.78-6.46-29.46-1.44c-4,1.45-8.19,5.72-10.17,8.86-4.87,7.69-7.57,5.59-7.57,5.59"/><ellipse class="cls-2" cx="68.95" cy="170.71" rx="12.74" ry="21.93" transform="matrix(0.97, -0.26, 0.26, 0.97, -42.2, 23.94)"/><path class="cls-9" d="M85.39,152.59s-14.93-8.25-29.1-4.86a37.32,37.32,0,0,0-10.77,4.65"/><ellipse class="cls-10" cx="71.25" cy="170.71" rx="12.74" ry="21.93" transform="translate(-42.12 24.54) rotate(-15.14)"/><ellipse class="cls-11" cx="70.55" cy="189.39" rx="22.23" ry="6.33" transform="matrix(1, -0.04, 0.04, 1, -7.22, 2.85)"/><ellipse class="cls-12" cx="70.7" cy="161.95" rx="3.82" ry="6.67" transform="translate(-27.05 14.74) rotate(-10)"/><path class="cls-13" d="M89.68,224a75.87,75.87,0,0,0,10.77,2.17c13.92,1.38,27.43.72,39.14-6.15,10.89-6.4,13.5-10.37,13.5-10.37"/><path class="cls-13" d="M113.93,234s3.38,3.5,12.15,1.88,10.58-7.37,10.58-7.37"/><g class="cls-7"><path class="cls-4" d="M114.48,235.46a12.79,12.79,0,0,0,6,1.33,27.13,27.13,0,0,0,6.07-.66c.48-.13,1-.22,1.47-.35s1-.28,1.42-.47a14,14,0,0,0,2.69-1.26,9.89,9.89,0,0,0,4-4.48,7.79,7.79,0,0,1-3.07,5.76,12.7,12.7,0,0,1-2.9,1.76c-.52.22-1.06.38-1.59.58s-1.08.29-1.62.41a18.75,18.75,0,0,1-6.6.24A9.33,9.33,0,0,1,114.48,235.46Z"/></g><g class="cls-7"><path class="cls-14" d="M90.75,224.62c2.76.68,5.51,1.35,8.29,1.85,1.39.23,2.78.45,4.16.56s2.83.13,4.23.21c5.64.22,11.28.35,16.72-.71a52.31,52.31,0,0,0,15.53-5.92,78.82,78.82,0,0,0,7.16-4.43,22.85,22.85,0,0,0,6.13-5.71,12.28,12.28,0,0,1-2.42,3.52,36.35,36.35,0,0,1-3.09,3,59.21,59.21,0,0,1-7,5,46.1,46.1,0,0,1-16,6.49,59.4,59.4,0,0,1-17.2.19c-1.42-.13-2.81-.31-4.24-.5a33,33,0,0,1-4.22-.9A84.39,84.39,0,0,1,90.75,224.62Z"/></g><g class="cls-7"><path class="cls-4" d="M112.86,220.94a10.08,10.08,0,0,1,3.63-2.23,22,22,0,0,1,4.13-1.13,31.28,31.28,0,0,1,4.23-.47,12.08,12.08,0,0,1,4.23.47,26.36,26.36,0,0,0-4.17.34c-1.37.19-2.75.41-4.12.63s-2.73.51-4.06.87A15.13,15.13,0,0,0,112.86,220.94Z"/></g><path class="cls-15" d="M115.3,264.06c-72.57-2.49-90.73-32.33-95.79-53.35-6-24.84-10.94-43.4-8.13-48.47,11.7-21.11,27.6-16.58,28-67.43.29-34.38,25.74-53.87,49.61-53,0,0-25.06,8.86-33.49,27.36-9.1,20-2,28.57-9.39,57.76-5.62,22.23-22.74,25.66-23,36.29s5.41,30.52,10,53.17C42,259.91,115.3,264.06,115.3,264.06Z"/><path class="cls-15" d="M224.79,145.93c29.9,55.68,13,94.39-33,96.28,0,0,26.6-23.5,33.59-42.19C233.36,178.66,224.79,145.93,224.79,145.93Z"/><path class="cls-16" d="M288.05,97.73c-5.68-.12-54.8-12.23-64.35-41.85C210.46,14.81,142.82,7.94,142.82,7.94,194-.56,225,37,248.36,60.44Z"/></g></g></g></svg>