<?xml version="1.0" encoding="utf-8"?>
<!-- Generator: Adobe Illustrator 23.1.0, SVG Export Plug-In . SVG Version: 6.00 Build 0)  -->
<svg version="1.1" id="Layer_1" xmlns="http://www.w3.org/2000/svg" xmlns:xlink="http://www.w3.org/1999/xlink" x="0px" y="0px"
	 viewBox="0 0 386 292.5" style="enable-background:new 0 0 386 292.5;" xml:space="preserve">
<style type="text/css">
	.st0{fill:#3874A7;}
	.st1{opacity:0.5;fill:#BAD8F2;enable-background:new    ;}
	.st2{opacity:0.2;fill:#BAD8F2;enable-background:new    ;}
	.st3{fill:#FFFFFF;stroke:#3874A7;stroke-width:3;stroke-miterlimit:10;}
	.st4{fill:#5990BF;}
	.st5{fill:#FCE8EC;}
	.st6{fill:none;stroke:#3874A7;stroke-width:2;stroke-miterlimit:10;}
	.st7{opacity:0.5;}
	.st8{opacity:0.5;fill:none;stroke:#3874A7;stroke-width:0.5;stroke-miterlimit:10;enable-background:new    ;}
	.st9{fill:none;stroke:#3874A7;stroke-miterlimit:10;}
	.st10{opacity:0.5;fill:#3874A7;enable-background:new    ;}
	.st11{fill:#FFFFFF;}
	.st12{fill:#FFFFFF;stroke:#3874A7;stroke-width:1;stroke-miterlimit:9.9998;}
	.st13{fill:none;stroke:#5990BF;stroke-width:2;stroke-miterlimit:10;}
	.st14{fill:#4A90BF;}
	.st15{opacity:0.2;enable-background:new    ;}
	.st16{opacity:0.5;fill:#BBD8F2;enable-background:new    ;}
</style>
<path class="st0" d="M112.7,3.2c0,0-96.1,9.1-110.1,92.9c-6.9,41.2,1.8,29.7,5,78.7c2.5,37.6-1.4,62,22.2,94.9
	c21.4,30,37.1,21.7,37.1,21.7l40.9-2.8l-16.4-23.9l22,23.4l31.1-2.9L128,265.5l22.2,19.3l63.4-5.3L193,257.3l26.1,21.9l59.9-13.6
	l-15.7-7.4l20.1,6.2l44.7-6c0,0,8.1-1.1,0-26.3c-2.7-8.4-5.8-14.2-8.7-18.2c-1.7-2.3,1.5-5,3.8-3.2c3.5,2.9,6.4,6.4,8.5,10.5
	c9,16.8,4.3,34.1,4.3,34.1l39.4-16.1c0,0,35.1-47-21.5-93.1C260.5,70.2,243.5,40.9,203.4,13.3C171.4-8.7,112.7,3.2,112.7,3.2z"/>
<path class="st1" d="M197.7,92.1c4.2-8.1-74.3-42.4-83.4-47.4C95,34.2,128.9,62,152,73.4S194.9,97.3,197.7,92.1z"/>
<path class="st2" d="M375.8,202.9c8.5-11-9.4-41.4-18.5-44.6c-20.7-5.7,0.6,13.2,6.2,24.5S368.6,220.4,375.8,202.9z"/>
<path class="st3" d="M108.2,45.9c-2.2-3.2-5.9-2.3-9.6-2.5C76,42.5,52,61.4,51.7,94.8c-0.4,49.3-15.4,44.9-26.5,65.4
	c-2.7,4.9,2,22.9,7.7,47c4.8,20.4,21.9,49.3,90.5,51.7c50,1.8,88.6-37,98-59.8c2.9-7.1,4-17.2,3.4-25.6
	c-1.6-22.7-5.5-67.1-33.7-79.1C131.5,69.3,113.4,53.8,108.2,45.9z"/>
<path class="st4" d="M125.9,107.6c0-0.7,0.3-1.3,0.6-1.9c0.3-0.6,0.7-1.1,1.2-1.7c0.9-1,1.9-1.8,3-2.6c2.1-1.4,4.5-2.4,6.9-3.1
	s4.9-1,7.4-1.1c1.3,0,2.6,0.1,3.8,0.3c0.7,0.1,1.3,0.3,1.9,0.6c0.7,0.2,1.2,0.6,1.6,1.2c-0.3-0.1-0.6-0.1-0.9,0
	c-0.3,0-0.6,0.1-0.9,0.2c-0.6,0.2-1.1,0.3-1.7,0.5l-3.3,1.1c-2.2,0.8-4.4,1.4-6.6,2.1l-6.6,1.8c-1.1,0.3-2.2,0.6-3.3,1
	C127.9,106.4,126.9,106.9,125.9,107.6z"/>
<path class="st4" d="M79.4,116.4c-1.1-0.3-2.3-0.3-3.5-0.2c-1.1,0.1-2.2,0.3-3.3,0.5l-6.6,1.2c-2.2,0.4-4.5,0.7-6.8,1l-3.4,0.4
	c-0.6,0.1-1.2,0.2-1.7,0.3c-0.3,0.1-0.6,0.1-0.8,0.2c-0.3,0.1-0.6,0.2-0.8,0.4c0.1-0.7,0.5-1.3,1-1.8c0.4-0.5,0.9-1,1.4-1.4
	c1-0.8,2.1-1.4,3.3-1.9c2.3-1,4.6-1.7,7.1-2.1c2.5-0.5,5-0.5,7.5-0.2c1.3,0.2,2.6,0.5,3.8,1c0.6,0.3,1.2,0.6,1.7,1
	C78.7,115.2,79.1,115.7,79.4,116.4z"/>
<ellipse transform="matrix(0.9659 -0.2588 0.2588 0.9659 -41.5292 53.5424)" class="st5" cx="182.6" cy="184.5" rx="16.3" ry="7.7"/>
<ellipse transform="matrix(0.9993 -3.838635e-02 3.838635e-02 0.9993 -7.7813 2.346)" class="st5" cx="57.2" cy="203.8" rx="16.3" ry="7.7"/>
<path class="st6" d="M113.6,208c-9.9,1-17.3,0.3-18.2-8.8s5.9-12.8,11.9-23.8"/>
<g class="st7">
	<path class="st0" d="M113.6,209c-2.1,0.4-4.3,0.6-6.4,0.7c-2.2,0.1-4.4-0.1-6.6-0.6c-2.3-0.5-4.4-1.8-5.8-3.7
		c-1.3-2-1.9-4.3-1.8-6.6c0-2.3,0.6-4.6,1.7-6.6c1.1-1.9,2.5-3.7,4-5.3c3-3.2,6-6.1,8.9-9.3c-2.3,3.6-4.9,7.1-7.7,10.4
		c-2.7,3.3-5,6.8-4.8,10.9c-0.1,2,0.4,3.9,1.4,5.6c1.1,1.6,2.8,2.8,4.7,3.3c2,0.6,4.1,1,6.2,1.1C109.3,208.9,111.5,208.9,113.6,209z
		"/>
</g>
<path class="st8" d="M128.4,127.5c0,0,0.3-2.9,8.1-6.7c6.4-3.2,7.4-2.2,7.4-2.2"/>
<path class="st6" d="M170.4,134.5c7.3,2.2,13.5,5.5,19.4,4.7"/>
<path class="st6" d="M131.9,144.8c0,0,12.3-11.8,26.9-12.1c3.9,0,7.8,0.6,11.6,1.8"/>
<ellipse transform="matrix(0.9941 -0.1089 0.1089 0.9941 -15.9802 17.978)" class="st0" cx="156.6" cy="155.3" rx="15.7" ry="21.9"/>
<path class="st9" d="M131.7,144.7c0,0,10.9-13.1,25.3-15.1c3.9-0.5,7.9-0.4,11.7,0.4"/>
<ellipse transform="matrix(0.9941 -0.1089 0.1089 0.9941 -15.9685 18.1959)" class="st10" cx="158.6" cy="155.3" rx="15.7" ry="21.9"/>
<ellipse transform="matrix(0.9848 -0.1736 0.1736 0.9848 -27.8085 31.2604)" class="st11" cx="164.8" cy="174.6" rx="22.2" ry="5.3"/>
<ellipse transform="matrix(0.9848 -0.1736 0.1736 0.9848 -22.8355 29.7389)" class="st12" cx="158.6" cy="145.4" rx="5" ry="6.7"/>
<path class="st8" d="M83.1,136.7c0,0-0.7-2.1-7.6-3.4c-5.7-1-6.4-0.1-6.4-0.1"/>
<path class="st6" d="M85.2,152.7c0,0-15.8-6.5-29.5-1.4c-4,1.4-8.2,5.7-10.2,8.9c-4.9,7.7-7.6,5.6-7.6,5.6"/>
<ellipse transform="matrix(0.9659 -0.2589 0.2589 0.9659 -42.0691 23.7401)" class="st0" cx="69.1" cy="171.6" rx="12.8" ry="22"/>
<path class="st9" d="M85.4,152.6c0,0-14.9-8.3-29.1-4.9c-3.8,1-7.4,2.5-10.8,4.6"/>
<ellipse transform="matrix(0.9653 -0.2612 0.2612 0.9653 -42.1175 24.5237)" class="st10" cx="71.2" cy="170.7" rx="12.7" ry="21.9"/>
<ellipse transform="matrix(0.9992 -3.996808e-02 3.996808e-02 0.9992 -7.5133 2.985)" class="st11" cx="70.9" cy="189.4" rx="22.2" ry="6.3"/>
<ellipse transform="matrix(0.9848 -0.1736 0.1736 0.9848 -27.0503 14.7336)" class="st12" cx="70.7" cy="162" rx="3.8" ry="6.7"/>
<path class="st13" d="M89.7,224c3.5,1,7.1,1.7,10.8,2.2c13.9,1.4,27.4,0.7,39.1-6.1c10.9-6.4,13.5-10.4,13.5-10.4"/>
<path class="st13" d="M113.9,234c0,0,3.4,3.5,12.2,1.9s10.6-7.4,10.6-7.4"/>
<g class="st7">
	<path class="st4" d="M114.5,235.5c1.9,0.9,3.9,1.4,6,1.3c2,0,4.1-0.2,6.1-0.7c0.5-0.1,1-0.2,1.5-0.4c0.5-0.2,1-0.3,1.4-0.5
		c0.9-0.3,1.8-0.7,2.7-1.3c1.8-1,3.2-2.6,4-4.5c-0.1,2.3-1.3,4.4-3.1,5.8c-0.9,0.7-1.9,1.3-2.9,1.8c-0.5,0.2-1.1,0.4-1.6,0.6
		s-1.1,0.3-1.6,0.4c-2.2,0.5-4.4,0.6-6.6,0.2C118.1,238.1,116,237.1,114.5,235.5z"/>
</g>
<g class="st7">
	<path class="st14" d="M90.8,224.6c2.8,0.7,5.5,1.4,8.3,1.9c1.4,0.2,2.8,0.4,4.2,0.6s2.8,0.1,4.2,0.2c5.6,0.2,11.3,0.4,16.7-0.7
		c5.5-1.1,10.7-3.1,15.5-5.9c2.5-1.3,4.9-2.8,7.2-4.4c2.4-1.5,4.5-3.4,6.1-5.7c-0.6,1.3-1.4,2.5-2.4,3.5c-1,1.1-2,2.1-3.1,3
		c-2.2,1.8-4.5,3.5-7,5c-4.9,3.2-10.3,5.4-16,6.5c-5.7,0.9-11.5,1-17.2,0.2c-1.4-0.1-2.8-0.3-4.2-0.5c-1.4-0.2-2.8-0.5-4.2-0.9
		C96.1,226.5,93.4,225.6,90.8,224.6z"/>
</g>
<g class="st7">
	<path class="st4" d="M112.9,220.9c1-1,2.3-1.8,3.6-2.2c1.3-0.5,2.7-0.9,4.1-1.1c1.4-0.3,2.8-0.4,4.2-0.5c1.4-0.1,2.9,0.1,4.2,0.5
		c-1.4,0-2.8,0.1-4.2,0.3c-1.4,0.2-2.8,0.4-4.1,0.6s-2.7,0.5-4.1,0.9C115.4,219.7,114.1,220.3,112.9,220.9z"/>
</g>
<path class="st15" d="M115.3,264.1c-72.6-2.5-90.7-32.3-95.8-53.4c-6-24.8-10.9-43.4-8.1-48.5c11.7-21.1,27.6-16.6,28-67.4
	c0.3-34.4,25.7-53.9,49.6-53c0,0-25.1,8.9-33.5,27.4c-9.1,20-2,28.6-9.4,57.8c-5.6,22.2-22.7,25.7-23,36.3s5.4,30.5,10,53.2
	C42,259.9,115.3,264.1,115.3,264.1z"/>
<path class="st15" d="M224.8,145.9c29.9,55.7,13,94.4-33,96.3c0,0,26.6-23.5,33.6-42.2C233.4,178.7,224.8,145.9,224.8,145.9z"/>
<path class="st16" d="M288,97.7c-5.7-0.1-54.8-12.2-64.4-41.8C210.4,14.8,142.7,8,142.7,8C194-0.6,225,37,248.4,60.4L288,97.7z"/>
</svg>
