<svg xmlns="http://www.w3.org/2000/svg" viewBox="0 0 200 200"><defs><style>.cls-1,.cls-2{fill:#fff;}.cls-2{isolation:isolate;font-size:162.84px;stroke:#fff;font-family:serif, serif;font-weight:700;}</style></defs><g id="Layer_2" data-name="Layer 2"><g id="Layer_1-2" data-name="Layer 1"><path class="cls-1" d="M176.6,10A13.4,13.4,0,0,1,190,23.4V176.6A13.4,13.4,0,0,1,176.6,190H23.4A13.4,13.4,0,0,1,10,176.6V23.4A13.4,13.4,0,0,1,23.4,10H176.6m0-10H23.4A23.43,23.43,0,0,0,0,23.4H0V176.6A23.43,23.43,0,0,0,23.4,200H176.6A23.43,23.43,0,0,0,200,176.6h0V23.4A23.43,23.43,0,0,0,176.6,0Z"/><text class="cls-2" transform="translate(33.02 154.67) scale(1.11 1)">N</text></g></g></svg>