<svg xmlns="http://www.w3.org/2000/svg" viewBox="0 0 432.61 430.82"><defs><style>.cls-1{fill:#3873a6;}.cls-2{fill:#5185b1;}</style></defs><title>shaka</title><g id="Layer_2" data-name="Layer 2"><g id="Layer_1-2" data-name="Layer 1"><path class="cls-1" d="M150.89,294.76a8.72,8.72,0,0,1-.9-.05c-3.74-.39-9.13-2.17-12.11-5.13-11-10.89-17.28-22.78-18.24-34.38L116,211.44a30.64,30.64,0,0,1,.18-6.78l11.19-79.46c2.7-11.84,18.68-15.33,31.55-14.72a66.85,66.85,0,0,1,26,6.77c10.83,5.23,9.81,15.78,8.93,24.3l-.22,12.18-8.93,59.83a25.59,25.59,0,0,0-.19,5.75l1.73,22.85-8,30.67c-.77,1.79-4.84,10.88-9.3,14C167.05,288.19,157.4,294.76,150.89,294.76ZM134.22,126.63l-11.1,79a23.36,23.36,0,0,0-.14,5.23l3.63,43.76c.83,9.92,6.43,20.29,16.21,30,1.55,1.54,5.34,2.86,7.9,3.13s9.4-3.24,14.24-6.66c2.07-1.44,5.17-7.08,6.78-10.78l7.44-28.78-1.65-21.69a33,33,0,0,1,.26-7.31l8.89-59.61.2-11.93c.94-9.14,1.18-14.46-5-17.44a60.92,60.92,0,0,0-23.3-6.08C148,117,136,119.63,134.22,126.63Z"/><path class="cls-1" d="M214.6,320.93c-4.81,0-12.87-4.45-15.86-7.42-10.35-10.32-16-23-17.4-38.82v-.15c-.77-17.55-2.52-58.61-2.21-60.9l10.45-86.24,0-.17c3-13.17,20.82-17,35.23-16.23a75.7,75.7,0,0,1,29.3,7.76c11.11,5.43,18.08,17.19,16.93,28.62l-9,90.55a4.08,4.08,0,0,1-1.35,2.88L246.8,294.46c-1.7,6.68-5.46,12.61-10.06,15.89-1.75,1.48-12.49,10.28-21.9,10.58Zm-26.28-46.77c1.22,14.06,6.25,25.31,15.36,34.39,2.22,2.21,8.65,5.39,10.87,5.39h.07c6.13-.19,14.85-6.57,17.69-9l.28-.21c3.28-2.29,6.13-6.89,7.43-12l14.77-56.93a5.07,5.07,0,0,1,.6-1.44l8.72-87.66c.84-8.43-4.64-17.53-13-21.63A69.54,69.54,0,0,0,224.48,118c-12.13-.62-26,2.43-28,10.62l-10.41,85.88C185.93,217.33,187.34,251.64,188.32,274.16Zm-2.25-59.65v0h0Z"/><path class="cls-2" d="M256,382.62c.06-.06.2-.2.16-.18l-.24.22Z"/><path class="cls-2" d="M256.39,382.12a6.38,6.38,0,0,0-.55.5c.24-.21.15-.11.43-.36,0,0-.06.09-.15.17.07-.05,0,.07.12-.07s.16-.22,0-.09Z"/><path class="cls-2" d="M255.81,380.79l0,0Z"/><path class="cls-2" d="M255.35,380.06s0,0,.05-.05Z"/><path class="cls-2" d="M255.51,379.7v0S255.53,379.68,255.51,379.7Z"/><path class="cls-2" d="M255.81,380.79l.06-.09C255.79,380.77,255.82,380.76,255.81,380.79Z"/><path class="cls-2" d="M255.69,382.54s0,0,.07-.05l0,0Z"/><path class="cls-2" d="M256.26,380.86h0l.1-.09Z"/><path class="cls-2" d="M256.5,381l-.29.27a.85.85,0,0,1,.15-.13Z"/><path class="cls-2" d="M256.46,381.7l0,0Z"/><path class="cls-2" d="M256.16,380.68l.07-.08Z"/><path class="cls-2" d="M249.06,376.46l0,0Z"/><path class="cls-2" d="M249.83,375.25h0l.11-.11Z"/><path class="cls-2" d="M255.58,379.26Z"/><path class="cls-2" d="M253.74,377.68c-.16.19-.26.19-.43.42A5.45,5.45,0,0,0,253.74,377.68Z"/><path class="cls-2" d="M255.71,382.51h0Z"/><path class="cls-2" d="M253.31,378.1h0v0Z"/><path class="cls-2" d="M255,378.94,255,379Z"/><path class="cls-2" d="M255.06,379.55l0,0Z"/><path class="cls-2" d="M254.59,379.05s0,0,0,0l0,0S254.61,379,254.59,379.05Z"/><path class="cls-2" d="M254.41,378.88l0,0h0Z"/><path class="cls-2" d="M249.68,376.9l.17-.19C249.71,376.85,249.64,376.88,249.68,376.9Z"/><path class="cls-2" d="M255.8,382.43c-.05.05-.07.08-.09.08h0Z"/><path class="cls-2" d="M253,380.6v-.06S253,380.59,253,380.6Z"/><path class="cls-2" d="M250.94,378.12l0,0Z"/><path class="cls-2" d="M252.89,380.49l.12-.15,0,.05Z"/><path class="cls-2" d="M249.86,376.71h0Z"/><path class="cls-2" d="M249.2,377s.27-.24.43-.38-.18.21-.31.35c.09,0,.35-.27.35-.25l-.11.11c.23-.18.07.06.36-.18l-.06.07.35-.36s.19-.14,0,0l-.13.11.09-.06c-.23.25-.1.06-.28.24.1-.05.33-.23.28-.14-.24.24-.12,0-.31.28l.06-.12c-.36.39,0-.05-.38.37,0,.11.17-.08.13,0,.14-.12.2-.2.34-.32.3-.18-.57.64-.21.36.18-.15.49-.44.35-.26l-.28.26c0,.07.41-.36.27-.14s-.12.06-.15.09c-.19.24.17-.13.19-.11l-.24.24c.08,0,.3-.13.38-.13l-.22.22c.18-.06.09.15,0,.34l.23-.19a.51.51,0,0,1-.13.14c-.06.1.13-.13.23-.2s-.11.13-.18.19c.21-.14.48-.27.3,0l-.07.06c-.06.11.46-.39.29-.17l0,0c0,.15.23,0,0,.4.31-.29-.07.19.36-.22a2.73,2.73,0,0,0-.35.5s.28-.24.34-.27l-.22.22.26-.2-.25.27.07,0a.79.79,0,0,1,.15-.18c.12-.07-.1.22-.21.33l.25-.13a1.15,1.15,0,0,1-.2.16c.26-.19-.22.23,0,.06a1.41,1.41,0,0,1,.18-.17c-.12.14-.09.18,0,.15l-.16.14c0,.08.17,0,.21.07a2.3,2.3,0,0,1,.36-.35l-.22.24c.15-.14.07-.11.26-.26a1.8,1.8,0,0,1-.34.34l.11-.06-.2.18c.15-.13-.2.27.07,0l-.07.07c0,.05.15,0,.2,0,.2-.19.17-.13.34-.28,0,.09-.16.28-.11.3a2.49,2.49,0,0,0,.31-.27c-.18.18-.13.2-.28.31.07,0,.09,0,.29-.07a1.49,1.49,0,0,1,.17-.18s-.06.1-.15.18l0,0c.33-.21-.4.66,0,.34h0l.25-.14c0,.05-.15.12-.25.25.36-.25,0,.13.29,0-.51.56.15.09-.15.47l.13-.13c.14-.11-.06.09-.08.13a1.73,1.73,0,0,1,.18-.19c.25-.05,0,.39,0,.61,0,.07.67-.63.42-.28l-.25.22c.36-.2.14.16.46,0-.06.05-.13.12-.14.11-.16.19.05.07.19-.07a2.34,2.34,0,0,1-.19.21c-.08.11.26-.18.1,0l-.08.06c.09-.07,0,.07.22-.14-.07.12.14,0,0,.11.24-.2-.06.15.26-.15-.33.31-.21.3,0,.17-.11.09-.09.12-.23.24,0,0,.1,0,.26-.19-.35.42.39-.23-.09.28a2.2,2.2,0,0,1,.54-.19c-.33.31-.09,0-.43.31.18-.08.49-.32.46-.2a.88.88,0,0,1-.2.18c.18-.08.06.13.28,0l-.09.08s0,.07.12-.08l0,0a5.86,5.86,0,0,1,.59-.5c-.43.39-.06.14-.61.64a1.16,1.16,0,0,0,.2-.18.74.74,0,0,1-.19.2c.11-.05.25-.21.28-.18l-.19.17c.15-.12.3-.24.27-.16s-.1.1-.1.09.44-.29.35-.11c-.32.29-.09.11-.35.38l.1-.05.12-.14s.23-.15.16,0l-.12.09h.09l.08-.12c.16-.11.33-.33.29-.23s0,0-.13.19h0c.09-.07.19-.15.14-.07s-.3.29-.35.35c.23-.21.11,0,.36-.23a2.32,2.32,0,0,0-.22.21l.19-.16-.19.2c0,.06.33-.34.22-.16l-.08.06c0,.11.18,0,.13.08-.26.27-.1,0-.31.27.09,0,.42-.22.4-.11l0,0c.39-.36-.15.22.05.07l-.17.16c0,.09.15,0,.32-.1l-.1.09c-.07.11,0,.1,0,.16a1.19,1.19,0,0,0,.24-.2c-.5.6.41-.17,0,.33,0,0-.1.07-.09.08l.13,0c.17-.17.1-.11.22-.24s.19-.15.2-.14a2,2,0,0,0-.35.36l.16-.16c-.27.32.34-.32.17-.09l-.08.08s.18-.13.17-.09c-.19.19-.11.07-.26.23,0,0,.4-.32.22-.12a.91.91,0,0,1-.13.08c-.21.24-.15.19-.17.23h0l-.07.13.06-.07c.52-.46.14,0,.49-.32a2.57,2.57,0,0,0-.4.37,1.73,1.73,0,0,1-.17.21c.19-.16-.11.16.16-.07-.07.07,0,0-.17.19.08,0,.12-.12.21-.21.27-.2-.22.36.15.08.17-.09.42-.32.57-.4a1.26,1.26,0,0,1-.27.24c-.08.12,0,.12.05.06l-.18.19s.26-.24.18-.12l-.3.26c.08,0,.23-.15.31-.2a2.28,2.28,0,0,1-.28.24,1,1,0,0,0,.36-.23l.05-.08-.2.19c-.17.13,0-.09.11-.16l.06,0c.4-.41-.11,0-.12,0l.31-.28-.27.22a1.86,1.86,0,0,1,.29-.28c.13-.16-.12.09,0-.09l0-.05-.11.07c.07-.06.21-.21.18-.16.14-.2-.28.17-.06-.06l0,0c-.15.06-.22.21-.51.43l.51-.55-.22.21s0,0,.1-.12a2.61,2.61,0,0,0-.24.22c.18-.21-.15,0,.19-.31-.18.15-.11.14-.25.23.37-.37-.09,0,.06-.15s.12-.06.27-.25c-.34.31,0-.11,0-.07-.26.26-.15.07-.26.13.09-.08.09-.19.15-.31l.05,0c-.27.25-.25.17-.32.2a2.14,2.14,0,0,1,.3-.26l0,0a.51.51,0,0,1-.18.13l.2-.19s-.28.18-.18,0a5.06,5.06,0,0,1-.64.61l.32-.3s-.09.07-.06,0l.18-.15c.06-.09-.14.13-.14.1s.09-.11.21-.22-.05.07,0,0a.93.93,0,0,1,.18-.24,1.33,1.33,0,0,1-.22.19s.16-.17.22-.26c-.1.09,0,0-.23.18a.92.92,0,0,1,.15-.16c-.11.07-.09,0-.3.2h0c-.25.16,0-.2-.1-.16l.07-.07c-.1.06-.1,0-.27.13a1,1,0,0,1,.2-.23c-.07,0-.15.11-.07,0s.11-.11.11-.07.15-.2-.07,0c.19-.17.21-.24.14-.2l-.11.15s0,0,0-.05l.24-.22c.24-.34-.58.39-.13-.13-.18.15-.09.15-.3.33,0-.06.33-.42.32-.43s-.38.31-.32.19a2.05,2.05,0,0,1-.41.37,2,2,0,0,1,.41-.43s0,0,0,.05a.42.42,0,0,0,.17-.14l-.09.08c.08-.1,0-.12.18-.25a.55.55,0,0,0-.17.18c.09-.15-.05-.05,0-.16l-.14.15c.06-.15-.19.14-.25.14.11-.14.31-.29.17-.22a1.56,1.56,0,0,1,.3-.28c-.19.13.06-.16.07-.21l.08-.05s0,0-.06,0l-.16.17s0-.05.09-.11c-.12.09-.28.28-.45.41.08-.1-.13.05.09-.17,0,.11.23-.23.29-.23s0,0,0,0l.06-.05c.17-.23-.27.23-.3.19.13-.12.23-.24.2-.22a2.05,2.05,0,0,1-.32.29c.08-.12-.1.05-.1,0l0,.06c-.13.12-.12.09-.18.11.1-.1.08-.05.12-.1-.24.2.19-.27,0-.14.07-.1.23-.24.28-.31-.19.14.14-.2,0-.09a1.67,1.67,0,0,1-.31.28l.17-.07-.28.21s.14-.08.12,0a1,1,0,0,0-.24.23c.23-.27-.19.1,0-.09l.42-.41c.15-.22-.28.15-.21,0l-.06.09c-.18.15,0,0-.14,0A1.68,1.68,0,0,0,255,379c-.1.11,0,0-.31.23l.17-.2c0-.11-.45.35-.43.27a5,5,0,0,1,.38-.34s0,0-.09.05c.08-.09-.23.15-.1,0-.07.06-.22.2-.22.18l.07-.07a1.51,1.51,0,0,0-.26.24c.4-.47-.13-.07.22-.48a.52.52,0,0,1-.19,0l.06-.05c.1-.17-.42.37-.31.19s.14-.1.22-.2c.46-.46-.11,0,.14-.27l0,0c.14-.17-.22.13-.22.07l.07-.07a1.42,1.42,0,0,1-.46.28,2.37,2.37,0,0,0,.28-.27s-.29.3-.37.32a3.31,3.31,0,0,1,.36-.4h0c.24-.26,0,0,0-.08l.12-.11c-.08,0-.36.27-.38.21l-.08.09c-.3.25.14-.17-.09,0l.28-.29a3.77,3.77,0,0,1-.41.25,5,5,0,0,1,.51-.37s-.07,0-.22.1c0,0,.11-.08.07,0q-.36.3-.39.24c.55-.53.06-.21.46-.64-.25.14,0-.19-.1-.22-.41.44,0,0-.46.43,0,0,0,0,0,0l.22-.3c.12-.13.11-.08.21-.18s.17-.19.27-.33c-.16.16-.24.21-.19.14l-.18.22c-.28.18.33-.4.06-.22l.15-.12c-.11.06-.08-.08-.45.24l.2-.2c0-.1-.49.25-.31,0l.11-.1s-.22.18-.13.06l.12-.11s-.22.16-.17.08l.13-.1c.09-.19-.37.2-.48.23a2,2,0,0,0,.41-.52l0,0c0-.1-.36.15-.54.22.31-.37,0-.26.17-.5a2.18,2.18,0,0,1-.29.26c0-.08-.26.17,0-.11h0c.28-.28.18-.24.16-.26l-.38.36c.5-.59-.34.06.12-.46-.11.08-.12.07-.23.14l.21-.19c0-.09,0-.13-.07-.13l.15-.13s-.62.54-.65.52l.29-.3s.18-.34-.14-.12c.05,0,.13-.13.15-.13s.13-.28-.28.13c.27-.26,0-.07-.16,0l.2-.19a2,2,0,0,1-.44.34s.15-.16.11-.11c.08-.12-.2.17-.13,0l.14-.11s-.07,0-.23.16,0-.09.18-.27c-.11.1-.27.23-.23.17l.13-.13c.1-.17-.28.17-.11,0l.11-.12s0,.07,0,.08a5.15,5.15,0,0,1,.47-.47c-.16.12-.5.38-.43.27l.06-.06,0,0s0,0,0,0,0-.06,0-.07c.15-.15.06-.11,0-.13a3.4,3.4,0,0,0-.33.33s0,0,0,0l0,0,0,0h0c-.11.09-.21.17-.11,0l-.34.3c.26-.3.38-.48.55-.65a1.05,1.05,0,0,0-.56.33c-.06,0,.1-.12.15-.18a.3.3,0,0,0,.1-.07c-.11.08-.1,0-.36.23.09-.14.25-.22.17-.22l.09-.07c.35-.49-.79.54-.33-.07l-.08.1c.15-.33-.41,0-.12-.43,0-.11-.12.06-.27.17l.21-.22-.27.22c-.22.14.46-.59.07-.3l-.14.15c0-.05-.14,0,0-.13,0,0-.16.14-.09.06l.12-.11-.24.14c.05-.11.45-.43.43-.5a2.63,2.63,0,0,0-.45.35.77.77,0,0,1-.16.2l-.08,0a10.21,10.21,0,0,0-.88.91l.23-.17-.15.17h0c-.14.16,0,0,.1,0l-.17.18.35-.28a2.34,2.34,0,0,0-.32.33c.16-.13.28-.3.39-.37-.13.16-.26.27-.12.16a1.21,1.21,0,0,1-.18.17c.11-.09.08,0,.26-.17-.17.2.1,0-.22.31a1.68,1.68,0,0,1,.3-.22c-.4.34,0,.07-.39.46.36-.32.22-.09.43-.24,0,0-.08.07-.07.05a1.21,1.21,0,0,1-.16.23,4.81,4.81,0,0,1,.56-.46c-.25.28-.34.31-.59.57.22-.23.26-.19.44-.38-.15.18-.07.09-.29.33.35-.34.07,0,.3-.24-.15.19-.32.33-.19.25A1,1,0,0,1,249.2,377Zm1.21,0Zm.05.05s0,0,0,0a.92.92,0,0,1,.14-.13A.75.75,0,0,0,250.46,377.07Zm1.29-1.48s0,0,0,.07,0,0,0,0l0,0Z"/><path class="cls-2" d="M251.47,375.84h0l0,0,.07-.06Z"/><path class="cls-2" d="M255.78,380.83h0l0,0Z"/><polygon class="cls-2" points="250.78 378.16 250.83 378.11 250.78 378.15 250.78 378.16"/><path class="cls-2" d="M255.37,381.79l0,0Z"/><path class="cls-2" d="M255.45,382l0,.09Z"/><path class="cls-2" d="M255.44,382.15l.09-.09h0Z"/><path class="cls-2" d="M253.73,380.87h0C253.67,380.91,253.69,380.9,253.73,380.87Z"/><path class="cls-2" d="M254.64,380.86l-.11.08S254.52,381,254.64,380.86Z"/><polygon class="cls-2" points="253 380.61 253 380.6 253 380.6 253 380.61"/><path class="cls-2" d="M254.51,380.91s0,0,0,0S254.55,380.89,254.51,380.91Z"/><path class="cls-2" d="M255.75,382.65h0l0,0Z"/><path class="cls-2" d="M255.78,382.63l0,0Z"/><path class="cls-2" d="M255.87,382.57l-.06,0S255.81,382.63,255.87,382.57Z"/><path class="cls-2" d="M255.72,382.43l-.07.07Z"/><path class="cls-2" d="M255.67,382.41s-.14.18-.08.15l.06-.06C255.54,382.6,255.8,382.3,255.67,382.41Z"/><path class="cls-2" d="M256.41,381.37l0,.09c.07-.08.17-.19.2-.19C256.78,381,256.42,381.44,256.41,381.37Z"/><path class="cls-2" d="M256.42,381.16c.06,0,.12-.11.16-.15A.57.57,0,0,0,256.42,381.16Z"/><path class="cls-2" d="M255.72,380.45l.19-.18S255.84,380.34,255.72,380.45Z"/><polygon class="cls-2" points="254.65 381.23 254.54 381.36 254.72 381.2 254.65 381.23"/><polygon class="cls-2" points="255.87 379.88 255.9 379.86 255.81 379.9 255.87 379.88"/><path class="cls-2" d="M254.62,378.74l-.22.22S254.7,378.69,254.62,378.74Z"/><path class="cls-2" d="M253.88,378.44c.11-.11.17-.2.05-.1S253.85,378.47,253.88,378.44Z"/><polygon class="cls-2" points="252.72 376.53 252.81 376.46 252.72 376.5 252.72 376.53"/><path class="cls-2" d="M261.16,378.71l.24,0-.33,0Z"/><path class="cls-2" d="M261.76,378.56a5.16,5.16,0,0,0-.75.07l.57,0s-.1,0-.23.05c.09,0-.07,0,.14,0s.26-.06.05-.06Z"/><path class="cls-2" d="M262.14,377.43h0Z"/><path class="cls-2" d="M262.24,376.74h0Z"/><path class="cls-2" d="M262.58,376.58h0S262.61,376.58,262.58,376.58Z"/><path class="cls-2" d="M262.14,377.43l.1,0C262.13,377.41,262.16,377.41,262.14,377.43Z"/><path class="cls-2" d="M261,378.51h0Z"/><path class="cls-2" d="M262.44,377.68h0Z"/><path class="cls-2" d="M262.52,377.9l-.39,0h.19Z"/><path class="cls-2" d="M262.07,378.32h0Z"/><path class="cls-2" d="M262.48,377.52l.1,0Z"/><path class="cls-2" d="M259.61,371.51h0Z"/><path class="cls-2" d="M261,371.08h0l.16,0Z"/><path class="cls-2" d="M262.92,376.33h0Z"/><path class="cls-2" d="M262.47,374.46c-.24.05-.32,0-.59.07C262,374.51,262.32,374.5,262.47,374.46Z"/><path class="cls-2" d="M261,378.5h0S261,378.5,261,378.5Z"/><path class="cls-2" d="M261.88,374.53h0Z"/><path class="cls-2" d="M262.69,375.87l-.12,0Z"/><path class="cls-2" d="M262.34,376.28h0Z"/><path class="cls-2" d="M262.27,375.74s.06,0,0,0h0S262.32,375.73,262.27,375.74Z"/><path class="cls-2" d="M262.25,375.55h0Z"/><path class="cls-2" d="M259.81,372.07l.25,0C259.86,372.06,259.79,372,259.81,372.07Z"/><path class="cls-2" d="M261.1,378.49h0Z"/><path class="cls-2" d="M260.07,376l0,0S260.07,376,260.07,376Z"/><path class="cls-2" d="M260,373.45h0S260,373.45,260,373.45Z"/><path class="cls-2" d="M260.06,375.88l.19,0h-.08Z"/><path class="cls-2" d="M260.07,372h0Z"/><path class="cls-2" d="M259.38,371.92a4.85,4.85,0,0,0,.57-.05c.11,0-.27,0-.45.08.1,0,.43,0,.42,0l-.16,0c.3,0,0,.07.4,0h-.09l.5-.06s.23,0,0,0h-.06c-.34.05-.12,0-.37,0,.11,0,.4,0,.31.05-.34,0-.12,0-.42,0l.13-.05c-.53.09,0,0-.54.07-.09.05.18,0,.09.08l.46,0c.35,0-.84.15-.38.13.22,0,.65-.06.43,0l-.38,0c0,.05.55,0,.29,0s-.13,0-.17,0c-.3.06.22,0,.22,0l-.34.05c.06,0,.31,0,.38.09l-.31,0c.18,0,0,.13-.22.22l.3,0-.19,0c-.11,0,.18,0,.3,0a.77.77,0,0,1-.25,0c.25,0,.54.05.23.13H260c-.12,0,.6,0,.33,0h-.05c-.12.09.16.13-.28.24.43,0-.17.09.41,0a2.77,2.77,0,0,0-.58.16s.37,0,.43,0l-.3,0h.32l-.36.06H260l.22,0c.15,0-.2.1-.36.12l.27,0h-.25c.32,0-.32,0,0,0l.25,0c-.19,0-.18.08-.1.1l-.22,0c0,.05.12.09.12.14a2.58,2.58,0,0,1,.5-.06l-.32.05a1.82,1.82,0,0,1,.37,0,4.15,4.15,0,0,1-.48.06h.12l-.27,0c.2,0-.32.09,0,.06h-.1c0,.06.12.07.14.11a3.78,3.78,0,0,1,.45,0c-.09,0-.3.1-.27.14a3,3,0,0,0,.4,0,2.93,2.93,0,0,1-.41.07c.05,0,.06.05.27.09l.24,0s-.11,0-.23.05h0c.38,0-.73.25-.19.23h0l.29,0s-.2,0-.35.05c.43,0,0,.1.24.12-.75.13.07.12-.41.23l.18,0c.18,0-.1,0-.14,0l.26,0c.22.09-.23.27-.38.4s.92-.09.5,0l-.33,0c.41,0,0,.18.36.22h-.18c-.24,0,0,.06.19,0l-.27,0c-.14,0,.31,0,.07.05H260c.11,0,0,.06.25,0-.13.05.13.05,0,.09.31,0-.15.07.29,0-.45.05-.36.09-.14.09-.14,0-.14,0-.33.05,0,0,.1,0,.33,0-.54.11.44,0-.25.14a2.09,2.09,0,0,1,.54.12c-.45.05-.06-.06-.53,0,.19,0,.58,0,.48.09a2.13,2.13,0,0,1-.27,0c.19,0,0,.11.22.13h-.12s-.06,0,.14,0h-.06a6.58,6.58,0,0,1,.78,0c-.58,0-.14.06-.88.13a1.72,1.72,0,0,0,.27,0,.89.89,0,0,1-.27,0c.12,0,.33,0,.33,0l-.25,0c.19,0,.38,0,.3,0h-.13c0,.05.52,0,.34.1a3,3,0,0,0-.51.08h.12l.17,0s.27,0,.15.05h-.15l.08,0,.13-.05c.2,0,.47-.06.37,0s0,0-.22.06h0c.12,0,.25,0,.16,0l-.49.06c.31,0,.09.05.42,0l-.31,0,.26,0a1.21,1.21,0,0,1-.28,0s.47-.07.27,0a.27.27,0,0,1-.09,0c-.1.06.17.06.05.11-.38.06-.1,0-.41,0,.07,0,.46.06.38.12h0c.52-.06-.26.07,0,.06l-.23,0c-.08.05.14.06.31.09h-.14c-.11,0-.06.07-.12.1a2.11,2.11,0,0,0,.31,0c-.76.17.43.08-.2.22H261l.13,0,.31-.05h.25a3.54,3.54,0,0,0-.5.07l.22,0c-.4.07.47-.06.2,0l-.12,0c.06,0,.22,0,.19,0a2.37,2.37,0,0,1-.35,0s.51,0,.25,0h-.15c-.31.06-.23.05-.28.08h0l-.14.06.08,0c.7-.06.14,0,.59,0a4.12,4.12,0,0,0-.55.06,2,2,0,0,1-.26.06c.25,0-.18.05.17,0a1.08,1.08,0,0,1-.25,0,.83.83,0,0,0,.29,0c.34,0-.39.13.07.13.19,0,.52,0,.69,0a2.33,2.33,0,0,1-.36,0c-.14,0-.11.05,0,.06l-.27,0s.36,0,.22,0l-.4,0h.37a3,3,0,0,1-.37,0,1.25,1.25,0,0,0,.43,0l.09,0a1.31,1.31,0,0,1-.28,0c-.21,0,.09,0,.19-.06h.06c.57-.08-.09,0-.06-.08l.41,0-.35,0,.4-.05c.2,0-.15,0,.08,0H262c.08,0,.29,0,.23,0,.23-.06-.32,0,0-.07h0c-.15,0-.3,0-.66,0l.74-.11-.3,0s0,0,.15,0c-.21,0-.13,0-.33,0,.27-.06-.14-.05.35-.12-.24,0-.18.05-.34,0,.52-.07-.1,0,.14-.07a1.4,1.4,0,0,0,.37,0c-.46.05.09-.05,0-.06-.36,0-.15,0-.28,0a1.2,1.2,0,0,0,.32-.13h.06c-.37,0-.3,0-.38,0l.41,0v0h-.22l.27,0s-.33,0-.15-.07a6.24,6.24,0,0,1-.88.1l.43-.05s-.11,0-.06,0h.24c.1,0-.2,0-.18,0l.3-.05s-.08,0,0,0a1,1,0,0,1,.29-.07,1.87,1.87,0,0,1-.29,0s.23,0,.33-.07a1.25,1.25,0,0,0-.29,0l.22,0c-.13,0-.05-.07-.36,0h0c-.3,0,.15-.11,0-.14l.1,0c-.11,0-.07,0-.29,0l.3-.05c-.08,0-.19,0,0-.06s.15,0,.13,0,.23-.06,0-.06c.25,0,.32-.06.24-.06l-.18,0s0,0,0,0l.34,0c.39-.1-.7,0,0-.14-.24,0-.16.05-.43.07a4.55,4.55,0,0,1,.51-.12c.18-.06-.49,0-.37,0a3.39,3.39,0,0,1-.54.05,3.07,3.07,0,0,1,.58-.09s0,0-.06,0a.68.68,0,0,0,.22,0h-.12a1,1,0,0,1,.3-.08.78.78,0,0,0-.26,0c.17-.05,0-.05.11-.1a.62.62,0,0,1-.2,0c.14-.07-.23,0-.28,0,.18,0,.43-.05.27-.06a2.17,2.17,0,0,1,.41-.05c-.23,0,.14-.07.18-.1h.1l-.06,0-.23,0a.25.25,0,0,1,.14,0c-.16,0-.39.06-.61.06.12,0-.13,0,.18-.06-.1.05.31-.05.37,0s0,0,0,0h.09c.27-.07-.36,0-.36,0,.18,0,.33-.05.3-.06a1.78,1.78,0,0,1-.43.05c.13,0-.11,0-.09,0l-.07,0a.36.36,0,0,1-.21,0c.14,0,.1,0,.16,0-.32,0,.31-.08.1-.08l.41-.07c-.23,0,.24-.06,0-.07a1.84,1.84,0,0,1-.41,0l.18,0h-.35s.15,0,.11,0a1.29,1.29,0,0,0-.33,0c.35-.07-.21,0,0-.08l.59-.07c.26-.07-.31,0-.17-.1l-.1,0c-.23,0,0,0-.13,0a2.14,2.14,0,0,0,.39-.07,2.87,2.87,0,0,0-.39,0l.26,0c.1-.06-.56,0-.5,0s.35-.05.5,0,0,0-.1,0c.12,0-.27,0-.08,0-.09,0-.29,0-.28,0h.1a1.9,1.9,0,0,0-.35,0c.6-.11-.06-.1.46-.2a.34.34,0,0,1-.15-.07h.07c.18-.05-.56,0-.36,0s.17,0,.29,0c.64-.09-.09,0,.28-.11h0c.21-.05-.25,0-.21-.06h.1a1.31,1.31,0,0,1-.54,0,2.72,2.72,0,0,0,.39,0s-.41.06-.49,0c.14,0,.25-.06.53-.1l0,0c.35-.06,0,0,0-.06l.15,0c-.05,0-.44,0-.42,0h-.12c-.38,0,.22,0-.07,0l.39-.06a3.23,3.23,0,0,1-.46,0c.29,0,.44,0,.62,0,0,0,0-.05-.23,0,0,0,.13,0,.07,0-.31,0-.46,0-.46,0,.76-.09.18-.1.77-.2-.29,0,.11-.13.05-.19a6.2,6.2,0,0,1-.62.06s0,0,0,0l.36-.09a.92.92,0,0,1,.27,0,2.35,2.35,0,0,1,.42-.09c-.22,0-.32,0-.24,0l-.27.06c-.33,0,.5-.11.18-.12h.19c-.12,0,0-.09-.5-.06a1.58,1.58,0,0,1,.28,0c.07-.07-.53-.07-.24-.15h.15s-.28,0-.13,0l.15,0c-.05,0-.26,0-.18,0h.17c.19-.08-.41,0-.52-.07a2.28,2.28,0,0,0,.64-.15h.06c0-.07-.38-.07-.55-.11.47-.09.18-.15.44-.24a1.85,1.85,0,0,1-.39,0c.09,0-.31,0,.09,0h0c.39-.06.28-.08.29-.1l-.53.06c.76-.16-.3-.12.38-.24l-.26,0,.28,0c.06,0,.1-.07,0-.12h.21s-.82.06-.84,0l.42-.06c0-.05.35-.14,0-.14l.2,0s.28-.12-.3,0c.38-.05,0-.06-.14-.06l.28,0a2.18,2.18,0,0,1-.55,0s.22,0,.15,0c.14,0-.27,0-.12,0h.17s-.07,0-.28,0,.06,0,.31-.09c-.15,0-.35,0-.28,0l.18,0c.18-.07-.33,0-.06-.09l.16,0s0,.06,0,.06a6,6,0,0,1,.65-.08c-.2,0-.62,0-.5,0h.11s0,0,0,0,.07,0,.07,0c.22,0,.11,0,.12-.06a4.35,4.35,0,0,0-.46.06s0,0,0,0h0l0,0c-.14,0-.26,0-.11,0l-.45,0c.39-.06.59-.12.83-.16a1.37,1.37,0,0,0-.64,0c-.07,0,.15,0,.23-.05h.12a1,1,0,0,0-.43,0c.17-.05.34,0,.28-.06h.11c.58-.15-.95,0-.21-.2l-.13,0c.32-.14-.33-.17.18-.33.1-.05-.13,0-.31,0l.3,0h-.35c-.26,0,.72-.16.24-.15l-.2,0s-.13-.05.1-.07c0,0-.21,0-.1,0l.15,0-.27,0c.11-.05.62-.07.64-.13a3.66,3.66,0,0,0-.56,0,.81.81,0,0,1-.25.06H261a10.34,10.34,0,0,0-1.25.18H260l-.22,0,0,0c-.21,0,0,0,.11,0l-.24,0,.44,0a3.24,3.24,0,0,0-.46.07,4.63,4.63,0,0,1,.54-.06c-.2,0-.38.06-.19.05a1.4,1.4,0,0,1-.25,0c.14,0,.06,0,.31,0-.26,0,.07,0-.36.09H260c-.52,0,0,.06-.58.12.47,0,.21,0,.48,0h-.09l-.27.07a5.48,5.48,0,0,1,.73,0c-.37.07-.46,0-.82.09.31,0,.32,0,.58,0l-.43.08c.49-.06.08,0,.38,0-.23.06-.45.07-.3.08A1.9,1.9,0,0,1,259.38,371.92Zm.92.57Zm0,.06s0,0,0,0l.19,0Zm1.92-.36s0,0-.07,0h.07Z"/><path class="cls-2" d="M261.86,372.22h0l-.06,0h.08Z"/><path class="cls-2" d="M262.09,377.44h0Z"/><polygon class="cls-2" points="259.88 373.4 259.95 373.39 259.89 373.39 259.88 373.4"/><path class="cls-2" d="M261.17,377.87h0Z"/><path class="cls-2" d="M261.13,378l-.1,0Z"/><path class="cls-2" d="M261,378.14l.12,0h0Z"/><path class="cls-2" d="M260.47,376.52h0Z"/><path class="cls-2" d="M261.18,376.93h-.13S261,377,261.18,376.93Z"/><polygon class="cls-2" points="260.07 376.01 260.07 376.01 260.07 376 260.07 376.01"/><path class="cls-2" d="M261.05,376.91c-.05,0,0,0,0,0S261.09,376.91,261.05,376.91Z"/><path class="cls-2" d="M260.93,378.6h0Z"/><path class="cls-2" d="M261,378.61h0Z"/><path class="cls-2" d="M261.07,378.61h0Z"/><path class="cls-2" d="M261.05,378.45h0Z"/><path class="cls-2" d="M261,378.41s-.21,0-.15.06h.08C260.79,378.47,261.18,378.4,261,378.41Z"/><path class="cls-2" d="M262.24,378.08l-.08.05a1.38,1.38,0,0,1,.28,0C262.76,378,262.2,378.13,262.24,378.08Z"/><path class="cls-2" d="M262.38,378c.05,0,.16,0,.22,0A.78.78,0,0,0,262.38,378Z"/><path class="cls-2" d="M262.29,377.17l.25,0A1.13,1.13,0,0,0,262.29,377.17Z"/><polygon class="cls-2" points="260.95 377.18 260.8 377.21 261.03 377.19 260.95 377.18"/><polygon class="cls-2" points="262.75 376.86 262.79 376.87 262.69 376.85 262.75 376.86"/><path class="cls-2" d="M262.5,375.55l-.32,0C262.24,375.6,262.59,375.56,262.5,375.55Z"/><path class="cls-2" d="M262.11,375c.15,0,.25-.06.1,0S262.07,375,262.11,375Z"/><polygon class="cls-2" points="262.4 373.24 262.51 373.24 262.42 373.23 262.4 373.24"/><path class="cls-2" d="M266.82,380.31c.07.05.24.15.21.12l-.28-.19Z"/><path class="cls-2" d="M267.39,380.55a6,6,0,0,0-.62-.41l.46.33s-.11,0-.21-.11c.07.05-.07,0,.1.1s.25.1.08,0Z"/><path class="cls-2" d="M268.54,379.66h0Z"/><path class="cls-2" d="M269.13,379l.06.05Z"/><path class="cls-2" d="M269.52,379.1h0S269.54,379.12,269.52,379.1Z"/><path class="cls-2" d="M268.54,379.66l.1,0C268.55,379.64,268.57,379.66,268.54,379.66Z"/><path class="cls-2" d="M266.81,380l.06.06,0,0Z"/><path class="cls-2" d="M268.57,380.12h0l.11.08Z"/><path class="cls-2" d="M268.47,380.39l-.33-.22.16.11Z"/><path class="cls-2" d="M267.81,380.51l0,0Z"/><path class="cls-2" d="M268.73,380l.09,0Z"/><path class="cls-2" d="M271.1,372.07l0,0Z"/><path class="cls-2" d="M272.46,372.51h0l.13.09Z"/><path class="cls-2" d="M270,379.07h0S270,379.08,270,379.07Z"/><path class="cls-2" d="M271.05,376.89c-.23-.1-.25-.2-.51-.31A3.8,3.8,0,0,0,271.05,376.89Z"/><path class="cls-2" d="M266.84,380v0S266.83,380,266.84,380Z"/><path class="cls-2" d="M270.54,376.58Z"/><path class="cls-2" d="M270.14,378.46l-.11-.06Z"/><path class="cls-2" d="M269.56,378.64h0Z"/><path class="cls-2" d="M269.92,378.05s.06,0,0,0l0,0S270,378.07,269.92,378.05Z"/><path class="cls-2" d="M270.05,377.84l-.05,0h.05Z"/><path class="cls-2" d="M270.82,372.77l.23.12C270.87,372.79,270.83,372.72,270.82,372.77Z"/><path class="cls-2" d="M266.94,380.05l-.1-.06h0Z"/><path class="cls-2" d="M268,376.89l0,0S268,376.87,268,376.89Z"/><path class="cls-2" d="M269.94,374.29l0,0S269.92,374.27,269.94,374.29Z"/><path class="cls-2" d="M268.12,376.75l.17.09a.1.1,0,0,0-.05,0Z"/><path class="cls-2" d="M271.05,372.89Z"/><path class="cls-2" d="M270.61,372.33a3.67,3.67,0,0,0,.48.32c.07.09-.24-.13-.41-.21a4.12,4.12,0,0,1,.32.28l-.13-.08c.23.17,0,.08.26.3l-.08-.05.43.26s.19.15,0,0l-.14-.1.08.07c-.3-.17-.09-.08-.3-.22.07.09.3.28.2.25-.29-.18-.06-.11-.34-.24l.13,0c-.47-.25.05,0-.46-.28-.11,0,.12.15,0,.14.15.11.24.14.39.25s-.76-.4-.4-.11c.19.13.55.36.34.27l-.33-.21c-.05,0,.46.31.21.22s-.09-.1-.13-.11c-.28-.13.17.13.16.15l-.29-.17c0,.07.19.25.21.34a1.4,1.4,0,0,0-.26-.16c.1.15-.12.11-.33.07l.23.18a.89.89,0,0,1-.16-.1c-.11,0,.16.1.25.17s-.16-.07-.23-.12c.19.17.39.4.09.28l-.07,0c-.12,0,.49.35.24.24l0,0c-.16,0,0,.23-.4.06.36.23-.2,0,.3.29a3.07,3.07,0,0,0-.57-.22s.3.22.34.27l-.26-.16.26.2-.33-.18.06.06.2.1c.1.11-.23,0-.36-.12l.18.21c-.11-.07-.13-.1-.2-.15.25.2-.28-.16-.05,0l.2.13c-.16-.08-.19,0-.14,0l-.18-.11c-.08,0,0,.16,0,.22a1.68,1.68,0,0,1,.43.26l-.28-.16a3.3,3.3,0,0,1,.31.19,1.39,1.39,0,0,1-.41-.24l.08.08-.23-.15c.17.12-.3-.12,0,.08l-.09,0c0,.06,0,.14,0,.2a3.05,3.05,0,0,1,.36.27c-.1,0-.31-.09-.32,0a3.14,3.14,0,0,0,.33.24c-.22-.14-.22-.08-.36-.2,0,.07,0,.09.14.27l.21.11s-.11,0-.22-.1h0c.29.27-.73-.23-.31.11l0,0,.21.21c-.06,0-.16-.12-.31-.18.33.29-.11.07.1.27-.67-.35,0,.17-.49,0l.15.09c.14.1-.09,0-.13-.05.11.07.14.07.22.13.11.23-.38.11-.59.15s.77.51.37.34l-.27-.19c.28.3-.13.18.11.45-.07-.05-.15-.1-.14-.11-.22-.1-.06.07.11.17,0,0-.15-.09-.24-.13s.23.21,0,.09l-.08-.06c.09.08-.06,0,.19.18-.14,0,.06.13-.1.07.26.18-.16,0,.21.21-.38-.24-.35-.13-.18,0-.11-.08-.13-.05-.29-.16,0,0,.05.09.25.21-.48-.24.32.32-.29,0a1.94,1.94,0,0,1,.32.47c-.39-.24,0-.09-.4-.34.12.16.43.4.3.4s-.17-.11-.23-.15c.12.16-.11.09.07.28a.39.39,0,0,1-.1-.08s-.07,0,.11.1l0,0a7.34,7.34,0,0,1,.63.45c-.49-.32-.16,0-.77-.44a1.12,1.12,0,0,0,.22.16,1,1,0,0,1-.24-.14c.08.09.27.19.24.23l-.21-.15c.16.12.31.24.22.23S268,378,268,378s.39.35.19.31c-.35-.24-.13-.05-.45-.25l.08.09.16.09s.2.18.08.14l-.12-.1,0,.09.14,0c.14.13.4.25.29.23s0,0-.21-.08h0c.1.08.2.15.11.13l-.42-.26c.25.17,0,.1.31.29l-.27-.16.21.14a1.19,1.19,0,0,1-.24-.13c-.07,0,.41.23.21.17l-.08-.06c-.12,0,.09.17-.05.14-.32-.18,0-.08-.33-.23,0,.09.31.35.2.36h0c.45.29-.25-.09-.05.07,0,0-.25-.16-.2-.13s.07.14.17.29l-.11-.08c-.12,0-.1,0-.16,0a1.45,1.45,0,0,0,.26.17c-.71-.33.26.36-.33.09l-.09-.07.07.12.28.15c.11.07.2.15.19.16a2.46,2.46,0,0,0-.44-.25l.19.12c-.37-.19.39.24.13.14l-.1-.06c.05,0,.17.14.13.14-.23-.13-.09-.08-.28-.2,0,0,.4.31.16.19l-.1-.11c-.28-.14-.22-.1-.27-.1h0l-.15,0,.08,0c.58.39.07.12.44.4a2.81,2.81,0,0,0-.47-.3,1.27,1.27,0,0,1-.23-.12c.19.15-.19-.07.1.15a1.34,1.34,0,0,1-.22-.12c.05.06.14.08.25.15s-.4-.13,0,.16c.13.15.4.33.52.46a2,2,0,0,1-.3-.2c-.13-.05-.12,0,0,.06a1.57,1.57,0,0,0-.23-.13s.29.19.16.14l-.33-.22c.07.07.21.18.27.25a2.45,2.45,0,0,1-.3-.21,1,1,0,0,0,.32.29l.09,0a1.63,1.63,0,0,1-.24-.15c-.16-.13.1,0,.18.07l.05.05c.5.28,0-.11,0-.12l.35.23-.27-.21a2.53,2.53,0,0,1,.34.21c.19.09-.12-.1.09,0l.06,0-.09-.08c.07.05.25.15.19.13.23.09-.23-.23,0-.08l0,0c-.09-.13-.26-.16-.54-.39l.66.37-.26-.17s0,0,.15.07a3.23,3.23,0,0,0-.28-.18c.25.12-.07-.14.35.1-.19-.13-.17-.06-.29-.18.45.27,0-.08.17,0s.09.09.31.19c-.38-.25.11,0,.05-.06-.31-.19-.1-.12-.19-.22.11.07.21,0,.34.08l.06,0c-.31-.19-.23-.19-.29-.25a2.93,2.93,0,0,1,.34.22v0a.72.72,0,0,1-.17-.14l.23.15s-.24-.23-.06-.17a7.18,7.18,0,0,1-.75-.47l.37.23s-.09-.07,0-.05l.19.14c.1,0-.16-.11-.13-.12a2.72,2.72,0,0,0,.25.15s-.07,0,0,0a.87.87,0,0,1,.28.11l-.24-.16s.21.11.31.15c-.12-.08,0,0-.23-.18l.19.1c-.1-.08,0-.09-.26-.24h0c-.22-.21.2,0,.13-.14l.08.06c-.08-.09,0-.11-.18-.24a1.14,1.14,0,0,1,.26.14c-.05-.06-.14-.12,0-.07s.13.07.09.09.23.09,0-.08c.21.14.28.14.23.09l-.17-.08s0,0,0,0l.28.19c.39.15-.52-.47.09-.17-.19-.13-.16-.05-.38-.21,0,0,.48.22.48.21.18.06-.39-.29-.26-.26a2.77,2.77,0,0,1-.45-.31,2.32,2.32,0,0,1,.51.3l-.06,0a.68.68,0,0,0,.18.13l-.09-.07c.11.05.12,0,.28.11a.4.4,0,0,0-.22-.12c.17.05,0-.06.16,0l-.18-.1c.16,0-.18-.14-.2-.21.17.07.37.23.26.12a1.5,1.5,0,0,1,.35.22c-.18-.16.16,0,.21,0l.07.06s0,0,0,0l-.21-.12a.35.35,0,0,1,.14.06c-.13-.09-.35-.2-.51-.33.11.05-.09-.11.18.05-.11,0,.28.16.3.22s0,0,0,0a.18.18,0,0,1,.07.05c.26.1-.3-.21-.26-.25s.29.17.26.14a1.62,1.62,0,0,1-.36-.23c.13,0-.07-.09-.05-.09l-.06,0c-.15-.1-.12-.1-.16-.15.12.07.07.07.13.09-.26-.18.3.12.14,0,.11,0,.29.18.36.21-.17-.16.23.09.09-.05a1.13,1.13,0,0,1-.34-.23l.11.15-.28-.22s.11.12.07.11a1.73,1.73,0,0,0-.28-.19c.32.17-.15-.15.07-.05l.51.31c.25.09-.22-.24-.06-.21l-.1,0c-.19-.13,0-.05-.07-.12a2.58,2.58,0,0,0,.34.19c-.13-.08,0,0-.3-.24l.24.11c.12,0-.45-.34-.37-.35a2.73,2.73,0,0,1,.42.29s.05,0-.06-.08c.11.05-.21-.18,0-.1-.07,0-.25-.16-.22-.16l.08.05a1.82,1.82,0,0,0-.29-.2c.55.28,0-.14.51.1a.5.5,0,0,1-.07-.17l.07,0c.18.06-.47-.32-.27-.25s.13.11.24.16c.56.33,0-.1.3.07l0,0c.2.09-.18-.19-.11-.2l.08.05a1.48,1.48,0,0,1-.39-.38l.33.21a3.72,3.72,0,0,1-.4-.28,4.15,4.15,0,0,1,.48.24v0c.31.17,0,0,.07,0l.13.09c0-.08-.35-.28-.29-.32l-.11-.05c-.31-.23.2.09,0-.09l.34.2c-.07-.07-.28-.26-.33-.33a4,4,0,0,1,.48.4s0-.08-.15-.19c0,0,.11.09.05.06-.25-.18-.36-.29-.34-.32.65.41.22,0,.75.3-.21-.21.17-.06.18-.16-.52-.29,0,0-.53-.34,0,0,0,0,0,0l.34.14c.16.08.11.08.22.15s.23.12.39.18c-.19-.11-.26-.17-.18-.15l-.26-.12c-.24-.22.47.23.23,0l.15.11c-.08-.08.06-.09-.34-.38.06,0,.21.12.24.15s-.36-.41-.07-.3l.12.08s-.22-.17-.09-.1l.14.08s-.21-.17-.12-.14l.13.1c.21,0-.29-.31-.34-.41a1.69,1.69,0,0,0,.6.27l.05,0c.09,0-.23-.31-.34-.47.43.21.26,0,.53,0a1.45,1.45,0,0,1-.33-.22c.09,0-.23-.2.11,0h0c.35.2.28.11.3.09l-.45-.28c.7.34-.13-.32.48,0-.11-.09-.09-.11-.2-.19l.24.15c.09,0,.14,0,.11-.1l.17.12s-.67-.47-.67-.51l.36.22c0-.06.38.08.09-.17l.16.11s.3.06-.2-.24c.33.2.07,0-.06-.15l.24.15c-.29-.21-.37-.26-.43-.35s.19.11.12.09c.14.05-.21-.16-.06-.12l.14.11s-.05-.07-.21-.19.09,0,.3.11c-.12-.08-.29-.2-.22-.18a.61.61,0,0,1,.15.1c.19.05-.23-.24,0-.13l.15.08s-.06.06-.08.05a4.18,4.18,0,0,1,.57.33c-.15-.12-.49-.38-.37-.35l.08,0,0,0s0,0,0,0,.07,0,.08,0c.18.11.12,0,.14,0a2.78,2.78,0,0,0-.4-.25s0,0,0,0l0,0,0,0a.09.09,0,0,1,0,.05c-.11-.08-.21-.16-.06-.09l-.38-.26c.35.18.55.25.76.38-.1-.13,0-.17-.45-.47,0-.05.13.06.21.1a.75.75,0,0,0,.09.09c-.1-.1,0-.11-.31-.31.16.06.28.2.25.12l.1.07c.55.22-.72-.63,0-.34l-.11,0c.35.06-.13-.39.39-.22.11,0-.09-.11-.23-.22l.26.15-.28-.21c-.19-.18.68.31.3,0l-.17-.1s-.07-.13.13,0c0,0-.17-.11-.08-.07l.14.09-.2-.2c.12,0,.53.34.59.3a2.34,2.34,0,0,0-.45-.35.88.88,0,0,1-.23-.11l-.06-.07a9,9,0,0,0-1.1-.63l.22.18-.2-.1v0c-.19-.09,0,0,.06.09a1.07,1.07,0,0,0-.22-.11l.36.26a3.16,3.16,0,0,0-.4-.23c.17.12.36.2.46.29-.19-.09-.33-.19-.19-.07a1.46,1.46,0,0,1-.21-.14c.11.09,0,.07.23.21-.23-.12,0,.09-.35-.14a1.23,1.23,0,0,1,.28.24c-.43-.31-.06,0-.54-.26.4.27.14.18.34.36l-.07-.06a1.87,1.87,0,0,1-.26-.1,6.2,6.2,0,0,1,.59.43c-.34-.17-.39-.26-.7-.44.27.17.24.21.47.34a3.69,3.69,0,0,1-.39-.2c.42.26.06.06.31.23-.22-.09-.4-.23-.29-.12A1.12,1.12,0,0,1,270.61,372.33Zm.27,1.18h0v0Zm0,.06,0,0a.9.9,0,0,1,.16.11A.84.84,0,0,0,270.85,373.57Zm1.74.89s0,0-.07,0l0,0,0,0Z"/><path class="cls-2" d="M272.29,374.25l0,0,0,0,.07,0Z"/><path class="cls-2" d="M268.5,379.64h0l0,0Z"/><polygon class="cls-2" points="269.87 374.14 269.93 374.18 269.88 374.14 269.87 374.14"/><path class="cls-2" d="M267.46,379.48l-.06,0Z"/><path class="cls-2" d="M267.32,379.6l-.1,0Z"/><path class="cls-2" d="M267.13,379.64l.1.06h0Z"/><path class="cls-2" d="M268,377.66h0Z"/><path class="cls-2" d="M268.18,378.54l-.1-.09S268.05,378.46,268.18,378.54Z"/><polygon class="cls-2" points="268.03 376.89 268.04 376.89 268.04 376.89 268.03 376.89"/><path class="cls-2" d="M268.1,378.43c-.05,0-.05,0,0,0S268.13,378.46,268.1,378.43Z"/><path class="cls-2" d="M266.72,380.06h0l0,0Z"/><path class="cls-2" d="M266.75,380.08l0,0Z"/><path class="cls-2" d="M266.82,380.16l-.05-.05Z"/><path class="cls-2" d="M266.92,380l-.08-.06Z"/><path class="cls-2" d="M266.93,379.92s-.2-.09-.16,0l.07,0C266.71,379.84,267.07,380,266.93,379.92Z"/><path class="cls-2" d="M268.12,380.38H268a.9.9,0,0,1,.23.15C268.57,380.65,268.05,380.41,268.12,380.38Z"/><path class="cls-2" d="M268.33,380.35s.13.08.18.11A.42.42,0,0,0,268.33,380.35Z"/><path class="cls-2" d="M268.85,379.49l.22.14S269,379.58,268.85,379.49Z"/><polygon class="cls-2" points="267.82 378.64 267.68 378.57 267.87 378.7 267.82 378.64"/><polygon class="cls-2" points="269.44 379.49 269.46 379.52 269.4 379.44 269.44 379.49"/><path class="cls-2" d="M270.24,378l-.27-.16S270.31,378.08,270.24,378Z"/><path class="cls-2" d="M270.34,377.22c.14.08.24.11.11,0S270.31,377.19,270.34,377.22Z"/><polygon class="cls-2" points="271.92 375.63 272 375.7 271.94 375.63 271.92 375.63"/><path class="cls-1" d="M168.93,259.19c0-.73-.4-17.94-17.44-20.07-10.75-1.34-15.6,9.08-15.65,9.18l-2.73-1.24c0-.12,5.84-12.53,18.75-10.91,19.67,2.45,20.07,22.81,20.07,23Z"/><path class="cls-1" d="M231.62,277c0-.73-.4-17.94-17.45-20.06-10.73-1.34-15.6,9.07-15.65,9.18l-2.73-1.24c.06-.13,5.85-12.54,18.75-10.92,19.68,2.45,20.08,22.81,20.08,23Z"/><path class="cls-1" d="M285.4,283.93l-3-.5c.11-.62,2.35-15.37-11.86-19.74-8.88-2.73-14.45,5.13-14.68,5.46l-2.48-1.69c.07-.1,7-10,18-6.64C288.21,266,285.43,283.75,285.4,283.93Z"/><path class="cls-1" d="M329.39,136.92a71,71,0,0,0-26.54-10.4c-13.53-2.29-32.07-.72-36.79,11.23l-.18.45-8.56,77.9,0,.11c-.71,3.22-1.48,14-1.64,16.41l0,.26-12.2,46.65a17.1,17.1,0,0,0-.49,2.83,37.34,37.34,0,0,1-.76,4.95c-1.31,6.37-.65,7.28,10.37,22.58,2.7,3.75,7.74,6.31,11.52,7.18a11,11,0,0,0,2.43.24c7,0,17.34-5,19.58-6.09a25.23,25.23,0,0,0,11.86-12.74l22-51.37a40.48,40.48,0,0,0,2-5.92l2-7.55c.36-1.39-1-1.75-2.38-1.46a5.14,5.14,0,0,0-2.43,1.65l-4.54,5.38,0,.06c-.67.8-1,3.28-1.65,4.83l-22,51.37a17.69,17.69,0,0,1-8.27,8.92c-6,3-14.16,5.83-16.86,5.22s-5.77-2.46-7-4.2c-5.06-7-7.84-10.88-8.91-13-.63-1.27-.61-1.4-.17-3.52a46.16,46.16,0,0,0,.88-5.82,9.28,9.28,0,0,1,.28-1.56L263.24,234l0-.36c.3-4.68,1.1-14.19,1.49-15.67l.09-.31,8.48-77.22.15-.51c3.35-6.58,17.27-7.68,28.1-5.84a64.35,64.35,0,0,1,23.69,9.3h0A31.5,31.5,0,0,1,331,148.6c.26.16,1.66,2.46,1.85,2.71,1.76,2.39-.43-.89,1.53,2.74a22.08,22.08,0,0,1,2,4.93,27.59,27.59,0,0,1,2,6.6c.56,2.33,2.75,1.24,3.09.13h0C345.55,154.79,339.29,143.27,329.39,136.92Z"/><path class="cls-1" d="M351.33,169.87a225.7,225.7,0,0,0-13.84-24.75c-.42-1-5.2-5.11-5.71-6s-2.79-.92-4.33-2.23c-2.06-2.31-5.27-.9-7.46-2.08,9.3,8.32,15.15,20,19.47,38.31.65,1.32,6.47,22.66,6.47,23.74,0,11,6.45-7.46,7.56-10.79s3.23-6.47,4.13-9.49L379.3,63.09l.16-.81-.16-.63c-.16-1.41-1.52-17,15.91-38.67,9.73-12.08,19.11-17.56,25.07-14.65A9.13,9.13,0,0,1,424.89,18c-11.06,47.49-18,143-18.73,153.7h0a6.53,6.53,0,0,1-.15,1.08c-11.55,53.94-34.1,149.92-45.33,167.55l-4,6.3c-25.79,40.59-30.09,47.38-54,47.38h-1.2c-.84,0-7.65.5-25.82,15.13a26.46,26.46,0,0,0,.54-9.79,13.43,13.43,0,0,0-9.37-10.45c-4.23-1.42-8.37-.85-10.81,1.46a7.09,7.09,0,0,0-1.75,7.28c3.4,12.09-15.39,21.44-17.54,22.47l-.22.1c-6.08,3.13-10.07,2.08-15.59.63-5.83-1.53-13.08-3.43-23.54.4-13.12,4.81-18.91.44-27.68-6.19l-1.46-1.1c-20.39-15.3-29.17-23.32-30.58-25.72l-.32-.56c-.3-.54-.66-1.15-.93-1.57l-42-61.92a88.66,88.66,0,0,0-13.69-16.4L60.59,278.56c-10.11-15.15-19-29.22-25.66-48.05l-.34-.76L9.34,194.18c-2.41-7.23-2.4-12.66,0-16.14,2.7-3.85,8.69-5.87,17.8-6h.11a19.5,19.5,0,0,1,7.23,1.71C62,187.81,80.3,205.23,88.27,216.83a28.46,28.46,0,0,1,1.85,3.31,24.31,24.31,0,0,0,4.13,6.33l23.37,24a5,5,0,0,0,.48,1.06l1.34,5.6c1,11.32,7.21,22.9,17.89,33.5.68.67,6.79,4.44,12,5,6.38.68,15.93-5.09,19-7.79q1-.75,2-1.59l3.42,2.09c4.12,2.51,7.74,4.73,11,6.71A79.79,79.79,0,0,0,199,313.88c3.33,3.3,10.47,6.81,14.42,7.25,7.16.76,17.51-6.32,19.87-8.07l1.43-1c3.33-2.28,5.23-5.17,9.07-10.27l.37-.49,1.32-2.89c1.31,2.93,3,6.9,5.32,9.94,2.73,3.5,10.38,8,14.31,8.89,6.48,1.49,18.8-5.41,21.26-6.61a25,25,0,0,0,11.44-12.26L317.9,251c.29-.7.56-1.42.82-2.14.14-4.11-.66-5.3-2-5.61a3.55,3.55,0,0,0-4,2.35c-.8,2.21-1.87,5.17-1.89,5.17l-19.94,44.57a16.39,16.39,0,0,1-7.9,8.54c-5,2.46-13.44,6.63-16.2,6-1.92-.43-8.73-4.49-10-6.17-3.92-5-5.47-8.61-7.42-14.52l-.27-6.13-6.84.31-.59,2.62-5.34,13.92c-3,4-4.44,5.31-6.91,7L227.81,308l-3.33,2.23c-4.64,3.46-8.35,2.65-11.34,2.34a18.1,18.1,0,0,1-8.83-4A71.34,71.34,0,0,1,191,290.86l-.41-1-1.06-.66c-3.42-2.1-7.34-4.51-11.87-7.27q-3-1.81-5.92-3.65l-2.91-1.63-2,2.43a15.5,15.5,0,0,1-3,2.74l-.36.28c-5,4.51-11.35,6.28-13.31,6.06-1.41-.15-5.05-.43-7.5-2.85C133.23,276,127.8,266,127,256.41v-.29L125.25,249l-.38-1.18-.15-.15a4.94,4.94,0,0,0-1.17-1.93L99.66,221.21a18.34,18.34,0,0,1-2.8-4.48,36.31,36.31,0,0,0-2.36-4.18C86,200.19,66.69,181.73,38,167a26.63,26.63,0,0,0-10.9-2.54c-11.66.18-19.69,3.28-23.86,9.22-4,5.66-4.24,13.55-.84,23.41l.29.85.4.41L28,233.46c6.93,19.45,16.41,34.42,26.38,49.33l20.17,29.38.45.89.63.32a81.38,81.38,0,0,1,12.46,15l42,61.92c.17.27.43.73.65,1.12s.28.49.38.66c2.45,4.17,13.4,13.57,32.56,27.94l1.44,1.09c6.58,5,12.91,9.75,22.23,9.75a36.54,36.54,0,0,0,12.6-2.5c8.23-3,13.48-1.63,19-.18,6.05,1.59,12.3,3.23,21-1.22,12.9-6.15,25.32-17.56,21.6-31.18a6.39,6.39,0,0,1,3.59.6,5.84,5.84,0,0,1,3.58,4.23c.63,3.83-.88,8.77-1.87,12-1.11,3.63-2.07,6.77.8,8.65s5.93-.58,8.1-2.42c17.63-15,25-17.06,25.89-17.27,28.95.16,34.6-8.68,61.41-50.88l4-6.29c14.53-22.82,43.13-155,46.34-170a14,14,0,0,0,.31-2.13c.74-10.67,7.62-105.6,18.55-152.51,1.43-6.17-1.41-14.65-8.66-18.18-5.58-2.72-17.46-4.17-34.26,16.7-18.44,22.9-17.94,40.19-17.56,44L350.19,169.78c0,.18-.05.36-.08.57"/></g></g></svg>