<?xml version="1.0" encoding="utf-8"?>
<!-- Generator: Adobe Illustrator 23.1.0, SVG Export Plug-In . SVG Version: 6.00 Build 0)  -->
<svg version="1.1" id="Layer_1" xmlns="http://www.w3.org/2000/svg" xmlns:xlink="http://www.w3.org/1999/xlink" x="0px" y="0px"
	 viewBox="0 0 556 671.5" style="enable-background:new 0 0 556 671.5;" xml:space="preserve">
<style type="text/css">
	.st0{fill:#4991C3;}
	.st1{fill:#FFFFFF;}
</style>
<title>shakahand</title>
<g>
	<g id="Layer_1-2">
		<path class="st0" d="M242.9,438c-0.4,0-0.9,0-1.4,0c-7.3-0.2-9.5-1.6-10.2-2.4c-17.4-11.2-29.1-51.7-28.8-69.5l0.2-153.2
			c0.3-17.8,8.9-37,32.3-37.6c0.1,0,3.2-0.1,10.2,0.1c6.9,0.2,9.9,0.3,9.9,0.3c14.2,0,24.3,6.7,29.3,19.4l0.1,0.3l-0.1,0.3
			c-1.2,4.7-1.9,9.5-1.9,14.3l-0.3,163.4l0,0.1c-2.4,20.7-14,54-29.5,62.7C252.1,436.5,249.7,438,242.9,438z M232.9,434.3
			c0.2,0.2,1.8,1.5,8.7,1.6c7.8,0.2,9.8-1.5,9.9-1.5l0.2-0.1c14.9-8.3,26.1-40.9,28.5-61.2l0.3-163.3c0.1-4.9,0.7-9.7,1.9-14.5
			c-4.7-11.8-13.9-17.8-27.3-17.8c0,0-3,0-10-0.3c-6.9-0.2-10-0.1-10-0.1c-27.7,0.7-30.2,27.5-30.4,35.7l-0.2,153.2
			c-0.2,17,11.4,57.4,28.1,67.9l0.2,0.1L232.9,434.3z"/>
		<path class="st0" d="M226.3,374.9l-0.7-1.9c5.2-1.9,10.7-3,16.2-3.1c5.6,0.1,11.1,1.2,16.3,3.1l-0.7,1.9c-5-1.9-10.3-2.9-15.6-3
			C236.6,372,231.4,373,226.3,374.9z"/>
		<path class="st1" d="M234,435.7c0,0-8.4-1.3-15.3-13c-6.9-11.7,0-36.2,0-36.2"/>
		<path class="st0" d="M233.9,436.7c-0.4-0.1-8.9-1.5-16-13.5c-7.1-11.9-0.4-36-0.1-37l1.9,0.5c-0.1,0.2-6.7,24.3-0.1,35.5
			c6.6,11.2,14.5,12.5,14.6,12.5L233.9,436.7z"/>
		<path class="st1" d="M249.8,436.2c0,0,8.4-1.3,15.3-13c6.9-11.7,0-36.2,0-36.2"/>
		<path class="st0" d="M250,437.2l-0.3-2l0.2,1l-0.2-1c0.1,0,8-1.4,14.6-12.5c6.6-11.2,0-35.2-0.1-35.5l1.9-0.5
			c0.3,1,6.9,25.1-0.1,37C258.9,435.6,250.3,437.1,250,437.2z"/>
		<path class="st0" d="M325.7,456c-0.5,0-1.1,0-1.7,0c-8-0.3-10.3-1.7-11-2.5c-18.9-12.1-32.1-57.7-31.8-76.9l0.4-166.2
			c0.3-19.2,9.6-40.1,34.9-40.8c0.1,0,3.4-0.1,11,0.1c7.5,0.3,10.7,0.3,10.8,0.3c10.1,0,18.3,3.1,24.2,9.1
			c9.7,9.9,11,24.8,10.8,32.9l-5.6,165.8c-0.3,17-11.7,64.7-31.7,76.1C335.4,454.4,333,456,325.7,456z M314.6,452.2
			c0.2,0.2,1.9,1.6,9.5,1.8c8.5,0.3,10.7-1.6,10.7-1.6l0.2-0.1c18.6-10.5,30.5-56.8,30.8-74.5l5.6-165.8c0.1-7.7-1-22.1-10.3-31.4
			c-5.6-5.7-13.2-8.5-22.8-8.5c0,0-3.3,0-10.8-0.3c-7.5-0.3-10.8-0.1-10.8-0.1c-30.1,0.9-32.8,29.9-33,38.8l-0.4,166.2
			c-0.3,18.4,12.9,63.9,31,75.3l0.2,0.1L314.6,452.2z"/>
		<path class="st0" d="M340.7,390.3c-10.7-4-22.5-4-33.2,0l-0.7-1.9c11.2-4.2,23.5-4.2,34.6,0L340.7,390.3z"/>
		<path class="st1" d="M317.3,454.4c0,0-8.9-1.3-16.3-13c-7.4-11.7,0-36.2,0-36.2"/>
		<path class="st0" d="M317.2,455.3c-0.4-0.1-9.4-1.5-17-13.5c-7.5-11.9-0.4-36-0.1-37.1l1.9,0.6c-0.1,0.2-7.1,24.3-0.1,35.4
			c7,11.1,15.5,12.5,15.6,12.6L317.2,455.3z"/>
		<path class="st1" d="M330.2,454.8c0,0,9.8-1.3,17.2-13c7.4-11.7,0-36.2,0-36.2"/>
		<path class="st0" d="M330.3,455.8l-0.3-2l0.1,1l-0.1-1c0.1,0,9.5-1.4,16.5-12.6c7-11.2,0-35.2-0.1-35.4l1.9-0.6
			c0.3,1,7.4,25.1-0.1,37.1C340.7,454.3,330.7,455.7,330.3,455.8z"/>
		<path class="st0" d="M354.2,646.4c-18.2,0-28.6-6.1-31-7.7c-2.8,1.3-16.3,6.1-48.8,2.2c-46.7-5.7-75.2-22.9-102-61.2
			c-30.7-44.1-52.6-106.1-60.6-130.7c-6.8-21.1-21.3-57.5-21.4-57.9l-3.6-9.2l5.4,8.2c0.2,0.3,17.8,26.8,38.8,39
			c32.2,18.6,43.8,16.9,67,13.6c3.5-0.5,7.1-1,11.1-1.5c35.5-4.4,56.1,4.3,58.4,5.3c5.5,2,26.9,15.1,22.7,37.8
			c-0.1,0.4-0.3,0.8-0.7,0.9c-0.8,0.3-1.4-0.2-3.2-1.5c-3.9-2.9-12.9-9.7-27.8-9.9c-11.4-0.1-19.4,3.6-22.5,10.5
			c-3.8,8.6,0.5,21,11.6,33.1c10,11,20.2,13.1,33.1,15.8c3.3,0.7,6.7,1.4,10.4,2.3c10,2.5,16.3,2.6,24.3,2.8
			c11.1,0.3,24.8,0.7,55,7.3c10.7,2.4,16.9,5.8,18.9,10.5c2.3,5.6-1.5,11.8-5.3,17.8c-3.5,5.6-6.8,10.9-4.9,15
			c1.6,3.7,7.3,6.4,17.2,8.2c46.7,8.4,68.6-6,68.8-6.2l4.8-3.3l-3.4,4.7c-0.3,0.4-30.7,41.3-97.5,52.5
			C363.6,646.1,358.7,646.4,354.2,646.4z M323.3,636.5l0.5,0.4c0.2,0.1,15.8,11.2,44.8,6.4c53.8-9,83.6-37.4,93-47.8
			c-8.7,3.9-29.9,10.5-65.7,4c-10.8-2-16.7-4.9-18.7-9.3c-2.3-5.1,1.5-11.1,5.1-16.9c3.5-5.6,7.1-11.3,5.1-16
			c-1.7-4-7.4-7.1-17.5-9.3c-29.9-6.6-43.6-7-54.6-7.3c-8.1-0.2-14.5-0.4-24.7-2.9c-3.7-0.9-7.1-1.6-10.4-2.3
			c-13.2-2.8-23.7-4.9-34.2-16.4c-11.8-12.9-16.2-25.8-11.9-35.3c3.5-7.7,12.1-11.9,24.3-11.7c15.5,0.2,24.9,7.2,29,10.3
			c0.3,0.2,0.7,0.5,0.9,0.7c3.5-23.3-21.4-34.4-21.6-34.5l-0.1-0.1c-2.2-1-22.3-9.5-57.3-5.1c-4,0.5-7.6,1-11,1.5
			c-22.9,3.3-35.6,5.1-68.3-13.8c-14.9-8.6-28.1-24.3-34.8-33.1c4.6,11.8,13.6,35.2,18.5,50.6c7.9,24.5,29.7,86.3,60.3,130.1
			c26.4,37.8,54.6,54.7,100.6,60.3c35.5,4.3,48-2.1,48.1-2.2L323.3,636.5z"/>
		<path class="st0" d="M354.6,646.5c-2.5,0-4.8-0.1-6.9-0.3c-15.5-1.3-23.9-6.3-25.9-7.5c-4.8,1.2-45.6,10.8-95.9-10.8
			c-19.9-8.5-39.9-26.1-54.7-48.2c-30.9-46.1-44-83.6-59.2-127c-6.3-18-12.8-36.6-21.1-57.6c-23.9-60.2-55-96.1-55.3-96.5
			c-1-1.3-23.1-30.9-20.2-49c0.7-4.3,2.7-7.6,6.1-9.9c20-13.8,57.4-7.9,78.4,12.4c21,20.3,56.9,96.2,59.3,101.4
			c0.4,0.4,1.8,1.7,4.1,4.1c3.3,1.6,14.1,4.8,22.8,0.4c6.1-3.1,10.1-9.4,11.8-18.6c0.6-3.3,1.2-7.7,1.8-12.4
			c0.8-6.2,1.7-12.6,2.6-16.3l1.9,0.5c-0.9,3.6-1.7,9.9-2.6,16.1c-0.6,4.7-1.2,9.1-1.9,12.5c-1.8,9.9-6.1,16.7-12.8,20.1
			c-9.6,4.9-21.1,1.3-24.7-0.4l-0.2-0.1L162,359c-2.9-2.9-4.3-4.3-4.3-4.3l-0.1-0.1l-0.1-0.2c-0.4-0.8-37.9-80.7-58.9-101
			c-20.4-19.7-56.6-25.5-75.9-12.2c-2.9,2-4.6,4.9-5.2,8.6C14.6,267.2,37,297,37.2,297.3c0.3,0.3,31.6,36.4,55.6,97
			c8.3,21.1,14.8,39.7,21.1,57.7c15.1,43.3,28.2,80.7,58.9,126.6c14.6,21.8,34.2,39.1,53.8,47.5c52.7,22.5,94.6,10.7,95.1,10.5
			l0.5-0.1l0.4,0.3c0.1,0.1,8.6,6.1,25.4,7.4c15.6,1.2,41.7-1.4,77.7-21.2c35.2-19.3,54-50.2,63.5-72.8
			c10.3-24.5,12.4-44.6,12.4-44.8l24.1-135.7l0.5-1.9c2.2-9.4,1.6-19.7,1.2-26.6c-0.2-2.8-0.3-4.9-0.2-6.3l6.5-115.5l-0.1-122.5
			c1.9-22.3-1-68.8-16.3-75.6c-3-1-6.3-1.7-9.6-2c-5.8-0.2-7.4,0.6-7.4,0.6l-0.2,0.1c-18.2,5.2-24.2,58-25.6,74.1l-3.3,114.8
			L463,310.6l-1.5-4.8c-0.3-1-7.9-24.4-9.5-33.5c-0.2-1.1-0.4-2.1-0.6-3.1c-1.1-5.4-2.6-12.1-5.4-50.1l2-0.1
			c2.8,37.8,4.2,44.4,5.3,49.8c0.2,1,0.4,2,0.6,3.1c1.2,6.5,5.6,20.8,7.9,28.4l7.4-91.6l3.3-114.8c1.8-21,8.1-70.3,26.9-75.9
			c0.6-0.3,2.7-1,8.4-0.8c3.5,0.3,6.9,1,10.2,2.1c17.9,7.8,19.2,59.6,17.6,77.5l0.1,122.5l-6.5,115.6c-0.1,1.2,0,3.3,0.2,6
			c0.4,7,1,17.5-1.3,27.2l-0.5,1.9l-24.1,135.5c0,0.1-2,20.5-12.5,45.3c-9.7,22.9-28.7,54.2-64.4,73.8
			C395.1,642.2,370.9,646.5,354.6,646.5z"/>
		<path class="st0" d="M405.4,437.6c-0.5,0-1,0-1.5,0c-7-0.2-9.1-1.5-9.7-2.3c-16.5-11.1-27.6-51.1-27.4-68.8l0.1-32.5l4-122.1
			c0.1-4.2-0.3-8.4-1-12.5l0-0.3l0.1-0.2c3.2-9.4,10.7-20.7,28.1-21.2c0.1,0,3-0.1,9.7,0.1c6.5,0.2,9.4,0.2,9.5,0.2c0,0,0,0,0,0
			c8.7,0,15.7,2.7,21,8c8.9,9,10,22.9,9.9,30.4l-5,151.3c-0.3,17.7-11.6,58-28.5,68C414,436.2,411.8,437.6,405.4,437.6z M395.8,434
			c0.2,0.2,1.7,1.4,8.2,1.6c7.4,0.2,9.3-1.4,9.3-1.4l0.2-0.1c15.8-9.2,27.4-48.6,27.6-66.4l5-151.3c0.1-7.2-1-20.5-9.3-29
			c-4.8-4.9-11.4-7.4-19.5-7.4c0,0,0,0,0,0h0c0,0-2.9,0-9.5-0.2c-6.5-0.2-9.5-0.1-9.5-0.1c-16.1,0.5-23.2,10.9-26.2,19.6
			c0.8,4.2,1.1,8.4,1,12.7l-4,122.1l-0.1,32.5c-0.3,16.9,10.8,56.8,26.6,67.2l0.2,0.2L395.8,434z"/>
		<path class="st0" d="M421,374.9c-10.4-4-21.8-4-32.2,0l-0.7-1.9c10.8-4.2,22.8-4.2,33.6,0L421,374.9z"/>
		<path class="st1" d="M397.7,435.9c0,0-8.6-1.3-15.8-13c-7.1-11.7,0-36.2,0-36.2"/>
		<path class="st0" d="M397.6,436.9c-0.4-0.1-9.2-1.5-16.5-13.5c-7.3-11.9-0.4-36-0.1-37l1.9,0.6c-0.1,0.2-6.9,24.3-0.1,35.4
			c6.8,11.1,15,12.5,15.1,12.5L397.6,436.9z"/>
		<path class="st1" d="M411.1,436.3c0,0,8.6-1.3,15.8-13c7.1-11.7,0-36.2,0-36.2"/>
		<path class="st0" d="M411.3,437.3l-0.3-2c0.1,0,8.3-1.4,15.1-12.5c6.8-11.2,0-35.2-0.1-35.4l1.9-0.6c0.3,1,7.2,25.1-0.1,37
			C420.4,435.8,411.6,437.3,411.3,437.3z"/>
	</g>
</g>
</svg>
