<svg xmlns="http://www.w3.org/2000/svg" viewBox="0 0 180.5 224.67"><defs><style>.cls-1,.cls-2{fill:#666;}.cls-2{stroke:#fff;stroke-miterlimit:10;}</style></defs><title>Asset 1</title><g id="Layer_2" data-name="Layer 2"><g id="Layer_2-2" data-name="Layer 2"><path class="cls-1" d="M86.39,80.33,83,51.7,51.35,55.29l-.84,9.16-4.1-13.26S37.13,77.24,33.09,84.62c-2.27,4.14-8.27,11-13.1,16.32a69.23,69.23,0,0,0-5.76,6.13l-1.11,1.14.21-.06A59.17,59.17,0,0,0,0,145.2c0,36.18,34,65.5,76,65.5s65-27.82,65-64C141,113.57,123.44,84.69,86.39,80.33Z"/><path class="cls-1" d="M150.42,224.06,80.91,211.81C66.39,209.25,56,199.26,57.74,189.49l.5-2.8c1.72-9.77,14.88-15.61,29.4-13.05l69.5,12.26c14.51,2.56,24.88,12.53,23.18,22.29l-.14.79c-.12.68-.24,1.36-.35,2C178.12,220.78,165,226.62,150.42,224.06Z"/><path class="cls-1" d="M82.18,38.43c-1.73-10.92-4.7-20.41-7.9-26.26a7.43,7.43,0,0,1-.35-.76C70.88,3.51,61.93-1.33,52.45.32L50.23.71l-.86.15C40.59,2.39,34.1,9,33,16.69a9,9,0,0,0,2.88,7.78C40.06,28.34,43,38.17,43,49.7a58.4,58.4,0,0,1-1.72,14.49A9,9,0,0,0,41.14,68h0c1.67,9.67,11.68,16,22.34,14.17l3.06-.53c9.31-1.61,16-8.93,16.49-17.19,0-.13,0-.25,0-.38C84,57.58,83.76,48.42,82.18,38.43Z"/><path class="cls-2" d="M130.82,179.91c9.67-5.31,17.6-11.15,22.07-15.89a6.5,6.5,0,0,1,.6-.57,16.78,16.78,0,0,0,3.58-21.87L156,139.86l-.41-.66a18.45,18.45,0,0,0-20-8.06,9.61,9.61,0,0,0-6.36,5.15c-2.31,4.83-10.58,10.77-21.36,14.85a65.37,65.37,0,0,1-14.1,3.68,10.18,10.18,0,0,0-3.62,1.24h0A16.86,16.86,0,0,0,84,179.75l1.46,2.37a18.46,18.46,0,0,0,21.29,7.7l.37-.1C113.48,188.19,122,184.76,130.82,179.91Z"/><path class="cls-2" d="M122.52,145.26C133,137.68,141.44,129.8,146,123.72a8.67,8.67,0,0,1,.63-.73c6.73-7.08,7.51-17.7,1.3-25.21-.47-.58-1-1.16-1.45-1.75-.19-.23-.37-.46-.56-.68-5.75-7-15.68-9.06-24.15-5.75a11.57,11.57,0,0,0-6.69,6.86c-2,5.82-10.85,13.87-22.79,20.24a79.5,79.5,0,0,1-15.82,6.49,12.59,12.59,0,0,0-4,2h0c-9.23,6.83-11.06,19.23-4.09,27.68l2,2.42c6.08,7.37,16.85,9.3,25.62,5.14a3.79,3.79,0,0,1,.42-.18C103.53,157.46,112.92,152.19,122.52,145.26Z"/><path class="cls-2" d="M103.86,113.58c7.68-6.9,13.56-14.13,16.46-19.75a5.23,5.23,0,0,1,.41-.67c4.58-6.5,3.62-16.47-2.75-23.67l-1.49-1.69-.57-.65c-5.9-6.67-14.57-8.86-21.19-5.94a8.09,8.09,0,0,0-4.59,6.31c-.83,5.42-7,12.8-16.07,18.53a51.31,51.31,0,0,1-12.33,5.76,7.85,7.85,0,0,0-3.09,1.77h0c-6.72,6.23-6.37,17.84.78,25.94l2.06,2.33c6.24,7.07,15.59,9.12,22.34,5.39a1.77,1.77,0,0,1,.31-.15C89.75,124.63,96.84,119.88,103.86,113.58Z"/></g></g></svg>