<?xml version="1.0" encoding="utf-8"?>
<!-- Generator: Adobe Illustrator 23.1.0, SVG Export Plug-In . SVG Version: 6.00 Build 0)  -->
<svg version="1.1" id="Layer_1" xmlns="http://www.w3.org/2000/svg" xmlns:xlink="http://www.w3.org/1999/xlink" x="0px" y="0px"
	 viewBox="0 0 219.1 197.9" style="enable-background:new 0 0 219.1 197.9;" xml:space="preserve">
<style type="text/css">
	.st0{fill:#3773A5;}
	.st1{fill:none;stroke:#FFFFFF;stroke-miterlimit:10;}
	.st2{fill:#3773A5;stroke:#FFFFFF;stroke-miterlimit:10;}
</style>
<title>Asset 1</title>
<path class="st0" d="M49.9,58.6l-3-3L31.6,70.2l-6.3,0.5c0,0,11.8,24.8,14.1,32.8c1.3,4.5,0.9,8.5,1.3,15.5c-0.1,2.8,0,5.5,0.3,8.3
	l1,6.6l0.1-0.2c1.4,13.3,7.2,20.7,16.6,30.3c25.3,25.5,54.5,44.3,94.7-5.9c26.4-32.9,18.6-106.2,4.4-85.2
	c-24.7,36.7-88.2-23.2-90.3-29.3C64.2,34.2,69.8,109.1,49.9,58.6z"/>
<path class="st1" d="M92.4,165c12.3-26.3,12.7-46.3-16-61.5"/>
<path class="st0" d="M188.2,75.3l-28.6,72.9c-8.7,17.9-20,23.2-27.7,18.1l-2.2-1.5c-7.7-5.1-6.9-18.5,1.6-36.3
	c0.1-0.3,0.3-0.5,0.4-0.7c2.2-3.8,17.9-32.5,24.2-45.5c6-12.4,15.7-35.4,16.9-39.1c0.1-0.5,0.3-0.9,0.5-1.3
	c8.7-17.5,20.8-27.1,28.4-22l0.6,0.4c0.5,0.4,1.1,0.7,1.6,1C211.6,26.4,196.9,57.3,188.2,75.3z"/>
<path class="st0" d="M51.3,59.6c-5.9-6.1-11.9-10.7-16.6-12.9c-0.2-0.1-0.4-0.2-0.6-0.3c-5.4-3.6-13.3-3.4-18.8,2l-1.3,1.2L13.6,50
	c-3.6,3.9-4.3,4.6-3.8,10.9c0.4,3.5,3,9,5.3,9.3c4.4,0.5,10.6,6.2,15.6,13.4c2.1,3.1,3.9,6.4,5.2,9.9c0.3,0.9,0.9,1.8,1.6,2.5l0,0
	c5.3,5.3,14.6,4.8,20.7-1.2l1.8-1.7c5.4-5.2,3.7,2,3-15.1c-0.1-0.1-1.3-4.1-1.4-4.2C59.3,69.2,56.7,65.1,51.3,59.6z"/>
<path class="st2" d="M163.2,99.5c1.7-9.6,2.1-18.2,1.4-23.9c0-0.2-0.1-0.5-0.1-0.7c-1.5-7.8-5.6-9.6-12.9-10.2l-1.7-0.2l-0.7-0.1
	c-6.9-0.6-13.4-0.5-16.4,5.9c-1.1,2.3-1.1,4.9,0,7.2c2,4.2,1.5,13.1-1.7,22.8c-1.3,4.1-3.1,8.1-5.2,11.8c-0.6,1-1,2.1-1.1,3.2l0,0
	c-1.4,8.1,3.9,15.6,11.8,16.7c0.3,0,0.5,0.1,0.8,0.1l2.4,0.2c7.3,0.6,14.2-3.8,16.9-10.8l0.1-0.3
	C159.3,116.1,161.6,108.3,163.2,99.5z"/>
<path class="st2" d="M140.3,82.7c2.1-11.9,0-20.5-1.2-27.8c0-0.3-0.8-2.4-0.8-2.7c-1.6-4.1-2-7.6-12-10.1c-0.1,0-0.2,0-0.3,0
	c-2.9-0.5-3.5-0.9-4.6-1.3c-0.6,0.1-0.5-0.1-0.8-0.1c-8.4-0.8-13.3-1.6-16.8,6.1c-1.3,2.8-1.3,6.1,0,8.9c2.4,5.1,1.8,16.2-2,28.2
	c-1.6,5.1-1.7,10-4.3,14.7c-0.7,1.2-1.1,2.6-1.4,3.9l0,0c-1.7,10.5,2,15.9,13.2,19.8l0.9,0.3c11.6,2.3,19.2-4,22.4-12.5
	c0-0.1,0.1-0.3,0.2-0.4C135.6,103.2,138.4,93.6,140.3,82.7z"/>
<path class="st2" d="M106.7,68.2c0.1-9.4-1.1-17.9-3-23.5c-0.1-0.2-0.1-0.5-0.2-0.7c-1.5-7.2-11.3-11.2-19.4-12l-1.9-0.2l-0.7-0.1
	c-7.1-0.1-10.9,1.3-12.9,7.4c-0.7,2.4-0.2,5,1.3,7.1c2.9,4.1,9,12.5,7.4,22c-0.7,4-1,5.3-2.5,9.6c0,0-0.7,4-0.7,5.1v4
	c1,7.5,3,11.6,10.7,13.1l2.6,0.2c8,0.8,14.6-3.8,16.2-10.5c0-0.1,0-0.2,0.1-0.3C105.6,84.4,106.7,76.8,106.7,68.2z"/>
<path class="st1" d="M28.4,78.4c0.9,6.5-3.1,12.4-8.9,13.1s-11.1-8.9-12-15.4s3.1-7.4,8.9-8.1C22.2,67.2,27.5,71.9,28.4,78.4z"/>
<path class="st1" d="M114.2,118.5L114.2,118.5c-4.4-1.8-6.5-6.9-4.7-11.3l4.7-11.3c0.8-1.9,3-2.8,4.9-2l8.2,3.4
	c3.1,1.3,5.7,2.7,4.3,6.9l-2.3,6.3c-0.1,0.2-1.2,3.4-2.9,5.6C124.2,118.8,119.4,120.7,114.2,118.5z"/>
<path class="st1" d="M142.7,127.3L142.7,127.3c-4.1-1.7-6.1-6.5-4.3-10.6l3-7c1-2.3,3.6-3.4,5.9-2.4l6.6,2.8c2.3,1,3.4,3.6,2.4,5.9
	l-3,7C151.6,127.1,146.9,129.1,142.7,127.3z"/>
<path class="st1" d="M91.2,94.2L91.2,94.2c-5.3-1.4-6.6-7-5.2-12.3l1-3.9c0.9-3.4,2.5-5.5,6.9-4.5l6.9,1.8c2.4,0.9,2.5,4.5,1.6,7.9
	l-1,3.9C100,92.4,96.5,95.6,91.2,94.2z"/>
</svg>
