<svg xmlns="http://www.w3.org/2000/svg" viewBox="0 0 110.83 259.01"><defs><style>.cls-1{fill:#bad8f2;}.cls-2{fill:#6cafd9;}.cls-3{fill:#fff;}</style></defs><title>sufingboard</title><g id="Layer_2" data-name="Layer 2"><g id="Layer_1-2" data-name="Layer 1"><path class="cls-1" d="M110.75,95.84c-1.48-40-17.63-65-31.64-79.21C73.12,10.49,64.43.25,56.81,0S38.12,9.67,31.73,16.22C17.71,30.47,1.56,55.46.09,95.43-1.8,146.46,27.71,216.08,44.84,252a11.64,11.64,0,0,0,6.15,5.9,11,11,0,0,0,14.84-5.57C83,216.49,112.55,146.87,110.75,95.84Z"/><path class="cls-2" d="M110.75,95.84c-.82-22-6.07-39.48-13-53.08,2.78,21,2.62,45.38-1.15,71C88,173.49,55.09,270.47,36,232.55c3.2,7.2,6.23,13.76,8.94,19.49a11.59,11.59,0,0,0,6.14,5.9,11,11,0,0,0,14.84-5.57C83,216.49,112.55,146.87,110.75,95.84Z"/><path class="cls-3" d="M38.59,77.81a4.21,4.21,0,0,1-2.24-.57,3.89,3.89,0,0,1-1.44-1.59,5.3,5.3,0,0,1-.5-2.34A5.18,5.18,0,0,1,34.92,71a3.85,3.85,0,0,1,1.45-1.59,4.15,4.15,0,0,1,2.21-.57,4.3,4.3,0,0,1,1.88.39,3.16,3.16,0,0,1,1.87,2.75h-2a1.94,1.94,0,0,0-.57-1.06,1.66,1.66,0,0,0-1.19-.42,1.85,1.85,0,0,0-1.11.34,2.17,2.17,0,0,0-.74,1,3.82,3.82,0,0,0-.26,1.51,4,4,0,0,0,.26,1.53,2.19,2.19,0,0,0,.73,1,1.86,1.86,0,0,0,1.12.34,1.78,1.78,0,0,0,.81-.17,1.49,1.49,0,0,0,.61-.5,2,2,0,0,0,.34-.8h2a3.47,3.47,0,0,1-.54,1.64,3.33,3.33,0,0,1-1.29,1.11A4.23,4.23,0,0,1,38.59,77.81ZM46.08,66V77.64H44V66Zm2.11,11.64V68.91h2.06v8.73Zm1-10a1.16,1.16,0,0,1-.84-.32,1,1,0,0,1,0-1.58,1.23,1.23,0,0,1,1.68,0,1.07,1.07,0,0,1,0,1.58A1.16,1.16,0,0,1,49.23,67.67Zm6.94,10.14a4.21,4.21,0,0,1-2.24-.57,3.89,3.89,0,0,1-1.44-1.59,5.3,5.3,0,0,1-.5-2.34A5.18,5.18,0,0,1,52.5,71a3.83,3.83,0,0,1,1.44-1.59,4.22,4.22,0,0,1,2.22-.57,4.3,4.3,0,0,1,1.88.39,3.14,3.14,0,0,1,1.31,1.1,3.25,3.25,0,0,1,.56,1.65h-2a1.92,1.92,0,0,0-.56-1.06,1.66,1.66,0,0,0-1.19-.42,1.85,1.85,0,0,0-1.11.34,2.1,2.1,0,0,0-.74,1,3.82,3.82,0,0,0-.26,1.51,4,4,0,0,0,.26,1.53,2.19,2.19,0,0,0,.73,1,1.86,1.86,0,0,0,1.12.34A1.78,1.78,0,0,0,57,76a1.55,1.55,0,0,0,.61-.5,2,2,0,0,0,.33-.8h2a3.37,3.37,0,0,1-.55,1.64,3.23,3.23,0,0,1-1.28,1.11A4.23,4.23,0,0,1,56.17,77.81Zm7.3-2.91V72.42h.33l3.13-3.51h2.41l-3.86,4.3h-.43ZM61.6,77.64V66h2.06V77.64Zm5.48,0-2.84-4,1.38-1.45,3.92,5.42Z"/></g></g></svg>