<?xml version="1.0" encoding="utf-8"?>
<!-- Generator: Adobe Illustrator 23.1.0, SVG Export Plug-In . SVG Version: 6.00 Build 0)  -->
<svg version="1.1" id="Layer_1" xmlns="http://www.w3.org/2000/svg" xmlns:xlink="http://www.w3.org/1999/xlink" x="0px" y="0px"
	 viewBox="0 0 2617 529" style="enable-background:new 0 0 2617 529;" xml:space="preserve">
<style type="text/css">
	.st0{fill:#0099FF;}
</style>
<path class="st0" d="M0,60.4l60-17C120,27,240-8,360,17.9c120,25,240,110.9,360,144.3s240,17.5,360-8.4c120-25,240-60,300-76.4
	l60-17V315h-60c-60,0-180,0-300,0s-240,0-360,0s-240,0-360,0s-240,0-300,0H0V60.4z"/>
<rect y="233.5" class="st0" width="1440" height="295.5"/>
<path class="st0" d="M2612,133.4c-31.5,7.7-64.3,15.3-97,22.1c-120,25.9-240,41.8-360,8.4S1915,44.6,1795,19.6
	c-120-25.9-240,9.1-300,25.5l-60,17v254.6h60c60,0,180,0,300,0s240,0,360,0s240,0,360,0c32.7,0,65.5,0,97,0V133.4z"/>
<rect x="1435" y="235.2" class="st0" width="1177" height="295.5"/>
</svg>
