<svg xmlns="http://www.w3.org/2000/svg" viewBox="0 0 1440 320"><path fill="#c4c4c4" fill-opacity="1" d="M0,64L30,85.3C60,107,120,149,180,154.7C240,160,300,128,360,112C420,96,480,96,540,122.7C600,149,660,203,720,192C780,181,840,107,900,80C960,53,1020,75,1080,90.7C1140,107,1200,117,1260,133.3C1320,149,1380,171,1410,181.3L1440,192L1440,320L1410,320C1380,320,1320,320,1260,320C1200,320,1140,320,1080,320C1020,320,960,320,900,320C840,320,780,320,720,320C660,320,600,320,540,320C480,320,420,320,360,320C300,320,240,320,180,320C120,320,60,320,30,320L0,320Z"></path></svg>